<?xml version="1.0" encoding="UTF-8" standalone="no"?>
<!DOCTYPE svg PUBLIC "-//W3C//DTD SVG 1.0//EN" "http://www.w3.org/TR/2001/REC-SVG-20010904/DTD/svg10.dtd">
<!-- Generated by Microsoft Visio 11.0, SVG Export, v1.0 WCT-workflow.svg Page-1 -->
<svg xmlns="http://www.w3.org/2000/svg" xmlns:xlink="http://www.w3.org/1999/xlink" xmlns:ev="http://www.w3.org/2001/xml-events"
		xmlns:v="http://schemas.microsoft.com/visio/2003/SVGExtensions/" width="6.38462in" height="7.59207in"
		viewBox="0 0 459.693 546.629" xml:space="preserve" color-interpolation-filters="sRGB" class="st9">
	<v:documentProperties v:langID="1033" v:metric="true" v:viewMarkup="false"/>

	<style type="text/css">
	<![CDATA[
		.st1 {fill:#e8eef7;stroke:#000000;stroke-linecap:round;stroke-linejoin:round;stroke-width:0.24}
		.st2 {fill:#000000;font-family:Arial;font-size:0.666664em}
		.st3 {font-size:1em}
		.st4 {fill:#f2f2f2;stroke:#000000;stroke-linecap:round;stroke-linejoin:round;stroke-width:0.24}
		.st5 {stroke:#000000;stroke-dasharray:1.68,1.2;stroke-linecap:round;stroke-linejoin:round;stroke-width:0.24}
		.st6 {fill:#000000;fill-opacity:1;stroke:#000000;stroke-opacity:1;stroke-width:0.057142857142857}
		.st7 {marker-end:url(#mrkr5-78);stroke:#000000;stroke-linecap:round;stroke-linejoin:round;stroke-width:0.24}
		.st8 {fill:none;stroke:#000000;stroke-dasharray:5.04,3.6;stroke-linecap:round;stroke-linejoin:round;stroke-width:0.72}
		.st9 {fill:none;fill-rule:evenodd;font-size:12;overflow:visible;stroke-linecap:square;stroke-miterlimit:3}
	]]>
	</style>

	<defs id="Markers">
		<g id="lend5">
			<path d="M 2 1 L 0 0 L 1.98117 -0.993387 C 1.67173 -0.364515 1.67301 0.372641 1.98465 1.00043 " style="stroke:none"/>
		</g>
		<marker id="mrkr5-78" class="st6" v:arrowType="5" v:arrowSize="4" v:setback="30.625" refX="-30.625" orient="auto"
				markerUnits="strokeWidth">
			<use xlink:href="#lend5" transform="scale(-17.5,-17.5) "/>
		</marker>
	</defs>
	<g v:mID="0" v:index="1" v:groupContext="foregroundPage">
		<title>Page-1</title>
		<v:pageProperties v:drawingScale="0.0393701" v:pageScale="0.0393701" v:drawingUnits="24" v:shadowOffsetX="8.50394"
				v:shadowOffsetY="-8.50394"/>
		<g id="shape1-1" v:mID="1" v:groupContext="shape" transform="translate(90.9487,-425.917)">
			<title>Rounded rectangle</title>
			<desc>Create Harvest Authorisation</desc>
			<v:userDefs>
				<v:ud v:nameU="visVersion" v:val="VT0(11):26"/>
			</v:userDefs>
			<v:textBlock v:margins="rect(4,4,4,4)" v:tabSpace="42.5197"/>
			<v:textRect cx="35.4331" cy="525.369" width="70.87" height="42.5197"/>
			<path d="M56.69 546.63 A14.1733 14.1733 -180 0 0 70.87 532.46 L70.87 518.28 A14.1733 14.1733 -180 0 0 56.69 504.11 L14.17
						 504.11 A14.1733 14.1733 -180 0 0 -0 518.28 L0 532.46 A14.1733 14.1733 -180 0 0 14.17 546.63 L56.69 546.63
						 Z" class="st1"/>
			<text x="8.53" y="522.97" class="st2" v:langID="5129"><v:paragraph v:horizAlign="1"/><v:tabList/>Create Harvest<v:newlineChar/><tspan
						x="12.09" dy="1.2em" class="st3">Authorisation</tspan></text>		</g>
		<g id="shape2-5" v:mID="2" v:groupContext="shape" transform="translate(218.508,-425.917)">
			<title>Rounded rectangle.2</title>
			<desc>Request Permission</desc>
			<v:userDefs>
				<v:ud v:nameU="visVersion" v:val="VT0(11):26"/>
			</v:userDefs>
			<v:textBlock v:margins="rect(4,4,4,4)" v:tabSpace="42.5197"/>
			<v:textRect cx="35.4331" cy="525.369" width="70.87" height="42.5197"/>
			<path d="M56.69 546.63 A14.1733 14.1733 -180 0 0 70.87 532.46 L70.87 518.28 A14.1733 14.1733 -180 0 0 56.69 504.11 L14.17
						 504.11 A14.1733 14.1733 -180 0 0 0 518.28 L0 532.46 A14.1733 14.1733 -180 0 0 14.17 546.63 L56.69 546.63
						 Z" class="st1"/>
			<text x="20.53" y="522.97" class="st2" v:langID="5129"><v:paragraph v:horizAlign="1"/><v:tabList/>Request<v:newlineChar/><tspan
						x="15.65" dy="1.2em" class="st3">Permission</tspan></text>		</g>
		<g id="shape3-9" v:mID="3" v:groupContext="shape" transform="translate(346.067,-425.917)">
			<title>Rounded rectangle.3</title>
			<desc>Request Approved</desc>
			<v:userDefs>
				<v:ud v:nameU="visVersion" v:val="VT0(11):26"/>
			</v:userDefs>
			<v:textBlock v:margins="rect(4,4,4,4)" v:tabSpace="42.5197"/>
			<v:textRect cx="35.4331" cy="525.369" width="70.87" height="42.5197"/>
			<path d="M56.69 546.63 A14.1733 14.1733 -180 0 0 70.87 532.46 L70.87 518.28 A14.1733 14.1733 -180 0 0 56.69 504.11 L14.17
						 504.11 A14.1733 14.1733 -180 0 0 -0 518.28 L0 532.46 A14.1733 14.1733 -180 0 0 14.17 546.63 L56.69 546.63
						 Z" class="st1"/>
			<text x="20.53" y="522.97" class="st2" v:langID="5129"><v:paragraph v:horizAlign="1"/><v:tabList/>Request<v:newlineChar/><tspan
						x="18.31" dy="1.2em" class="st3">Approved</tspan></text>		</g>
		<g id="shape4-13" v:mID="4" v:groupContext="shape" transform="translate(346.067,-355.051)">
			<title>Rounded rectangle.4</title>
			<desc>Create Target</desc>
			<v:userDefs>
				<v:ud v:nameU="visVersion" v:val="VT0(11):26"/>
			</v:userDefs>
			<v:textBlock v:margins="rect(4,4,4,4)" v:tabSpace="42.5197"/>
			<v:textRect cx="35.4331" cy="525.369" width="70.87" height="42.5197"/>
			<path d="M56.69 546.63 A14.1733 14.1733 -180 0 0 70.87 532.46 L70.87 518.28 A14.1733 14.1733 -180 0 0 56.69 504.11 L14.17
						 504.11 A14.1733 14.1733 -180 0 0 -0 518.28 L0 532.46 A14.1733 14.1733 -180 0 0 14.17 546.63 L56.69 546.63
						 Z" class="st1"/>
			<text x="23.43" y="522.97" class="st2" v:langID="5129"><v:paragraph v:horizAlign="1"/><v:tabList/>Create<v:newlineChar/><tspan
						x="23.87" dy="1.2em" class="st3">Target</tspan></text>		</g>
		<g id="shape6-17" v:mID="6" v:groupContext="shape" transform="translate(218.508,-213.318)">
			<title>Rounded rectangle.6</title>
			<desc>Review Target Instance</desc>
			<v:userDefs>
				<v:ud v:nameU="visVersion" v:val="VT0(11):26"/>
			</v:userDefs>
			<v:textBlock v:margins="rect(4,4,4,4)" v:tabSpace="42.5197"/>
			<v:textRect cx="35.4331" cy="525.369" width="70.87" height="42.5197"/>
			<path d="M56.69 546.63 A14.1733 14.1733 -180 0 0 70.87 532.46 L70.87 518.28 A14.1733 14.1733 -180 0 0 56.69 504.11 L14.17
						 504.11 A14.1733 14.1733 -180 0 0 -0 518.28 L0 532.46 A14.1733 14.1733 -180 0 0 14.17 546.63 L56.69 546.63
						 Z" class="st1"/>
			<text x="22.32" y="522.97" class="st2" v:langID="5129"><v:paragraph v:horizAlign="1"/><v:tabList/>Review<v:newlineChar/><tspan
						x="7.64" dy="1.2em" class="st3">Target Instance</tspan></text>		</g>
		<g id="shape7-21" v:mID="7" v:groupContext="shape" transform="translate(90.9487,-92.846)">
			<title>Rounded rectangle.7</title>
			<desc>Endorse Target Instance</desc>
			<v:userDefs>
				<v:ud v:nameU="visVersion" v:val="VT0(11):26"/>
			</v:userDefs>
			<v:textBlock v:margins="rect(4,4,4,4)" v:tabSpace="42.5197"/>
			<v:textRect cx="35.4331" cy="525.369" width="70.87" height="42.5197"/>
			<path d="M56.69 546.63 A14.1733 14.1733 -180 0 0 70.87 532.46 L70.87 518.28 A14.1733 14.1733 -180 0 0 56.69 504.11 L14.17
						 504.11 A14.1733 14.1733 -180 0 0 -0 518.28 L0 532.46 A14.1733 14.1733 -180 0 0 14.17 546.63 L56.69 546.63
						 Z" class="st1"/>
			<text x="20.53" y="522.97" class="st2" v:langID="5129"><v:paragraph v:horizAlign="1"/><v:tabList/>Endorse<v:newlineChar/><tspan
						x="7.64" dy="1.2em" class="st3">Target Instance</tspan></text>		</g>
		<g id="shape8-25" v:mID="8" v:groupContext="shape" transform="translate(346.067,-92.846)">
			<title>Rounded rectangle.8</title>
			<desc>Reject Target Instance</desc>
			<v:userDefs>
				<v:ud v:nameU="visVersion" v:val="VT0(11):26"/>
			</v:userDefs>
			<v:textBlock v:margins="rect(4,4,4,4)" v:tabSpace="42.5197"/>
			<v:textRect cx="35.4331" cy="525.369" width="70.87" height="42.5197"/>
			<path d="M56.69 546.63 A14.1733 14.1733 -180 0 0 70.87 532.46 L70.87 518.28 A14.1733 14.1733 -180 0 0 56.69 504.11 L14.17
						 504.11 A14.1733 14.1733 -180 0 0 -0 518.28 L0 532.46 A14.1733 14.1733 -180 0 0 14.17 546.63 L56.69 546.63
						 Z" class="st1"/>
			<text x="24.1" y="522.97" class="st2" v:langID="5129"><v:paragraph v:horizAlign="1"/><v:tabList/>Reject<v:newlineChar/><tspan
						x="7.64" dy="1.2em" class="st3">Target Instance</tspan></text>		</g>
		<g id="shape9-29" v:mID="9" v:groupContext="shape" transform="translate(90.9487,-0.72)">
			<title>Rounded rectangle.9</title>
			<desc>Archive Target Instance</desc>
			<v:userDefs>
				<v:ud v:nameU="visVersion" v:val="VT0(11):26"/>
			</v:userDefs>
			<v:textBlock v:margins="rect(4,4,4,4)" v:tabSpace="42.5197"/>
			<v:textRect cx="35.4331" cy="525.369" width="70.87" height="42.5197"/>
			<path d="M56.69 546.63 A14.1733 14.1733 -180 0 0 70.87 532.46 L70.87 518.28 A14.1733 14.1733 -180 0 0 56.69 504.11 L14.17
						 504.11 A14.1733 14.1733 -180 0 0 -0 518.28 L0 532.46 A14.1733 14.1733 -180 0 0 14.17 546.63 L56.69 546.63
						 Z" class="st1"/>
			<text x="22.1" y="522.97" class="st2" v:langID="5129"><v:paragraph v:horizAlign="1"/><v:tabList/>Archive<v:newlineChar/><tspan
						x="7.64" dy="1.2em" class="st3">Target Instance</tspan></text>		</g>
		<g id="shape10-33" v:mID="10" v:groupContext="shape" transform="translate(346.067,-298.358)">
			<title>Rounded rectangle.10</title>
			<desc>Tune Target</desc>
			<v:userDefs>
				<v:ud v:nameU="visVersion" v:val="VT0(11):26"/>
			</v:userDefs>
			<v:textBlock v:margins="rect(4,4,4,4)" v:tabSpace="42.5197"/>
			<v:textRect cx="35.4331" cy="525.369" width="70.87" height="42.5197"/>
			<path d="M56.69 546.63 A14.1733 14.1733 -180 0 0 70.87 532.46 L70.87 518.28 A14.1733 14.1733 -180 0 0 56.69 504.11 L14.17
						 504.11 A14.1733 14.1733 -180 0 0 -0 518.28 L0 532.46 A14.1733 14.1733 -180 0 0 14.17 546.63 L56.69 546.63
						 Z" class="st1"/>
			<text x="13.64" y="527.77" class="st2" v:langID="5129"><v:paragraph v:horizAlign="1"/><v:tabList/>Tune Target</text>		</g>
		<g id="shape11-36" v:mID="11" v:groupContext="shape" transform="translate(218.508,-427.334) scale(-1,1)">
			<title>45 degree single</title>
			<v:userDefs>
				<v:ud v:nameU="visVersion" v:val="VT0(11):26"/>
			</v:userDefs>
			<path d="M0 526.79 L19.84 506.94 L19.84 520.04 L56.69 520.04 L56.69 533.53 L19.84 533.53 L19.84 546.63 L0 526.79 Z"
					class="st4"/>
		</g>
		<g id="shape12-38" v:mID="12" v:groupContext="shape" transform="translate(346.067,-427.334) scale(-1,1)">
			<title>45 degree single.12</title>
			<v:userDefs>
				<v:ud v:nameU="visVersion" v:val="VT0(11):26"/>
			</v:userDefs>
			<path d="M0 526.79 L19.84 506.94 L19.84 520.04 L56.69 520.04 L56.69 533.53 L19.84 533.53 L19.84 546.63 L0 526.79 Z"
					class="st4"/>
		</g>
		<g id="shape13-40" v:mID="13" v:groupContext="shape" transform="translate(908.287,149.059) rotate(90) scale(-1,1)">
			<title>45 degree single.13</title>
			<v:userDefs>
				<v:ud v:nameU="visVersion" v:val="VT0(11):26"/>
			</v:userDefs>
			<path d="M0 526.79 L12.76 506.94 L12.76 520.04 L28.35 520.04 L28.35 533.53 L12.76 533.53 L12.76 546.63 L0 526.79 Z"
					class="st4"/>
		</g>
		<g id="shape15-42" v:mID="15" v:groupContext="shape" transform="translate(459.823,699.454) rotate(-34.5085) scale(1,-1)">
			<title>45 degree single.15</title>
			<v:userDefs>
				<v:ud v:nameU="visVersion" v:val="VT0(11):26"/>
			</v:userDefs>
			<path d="M0 526.02 L20.61 505.42 L20.61 519.02 L68.8 519.02 L68.8 533.03 L20.61 533.03 L20.61 546.63 L0 526.02 Z"
					class="st4"/>
		</g>
		<g id="shape16-44" v:mID="16" v:groupContext="shape" transform="translate(780.728,333.311) rotate(90)">
			<title>Curved arrow</title>
			<v:userDefs>
				<v:ud v:nameU="visVersion" v:val="VT0(11):26"/>
			</v:userDefs>
			<path d="M0 538.13 L28.35 538.13 A80.2181 80.2181 -180 0 0 108.56 458.86 L108.75 443.22 L117.25 443.32 L100.34 434.62
						 L83.23 442.92 L91.74 443.02 L91.55 458.66 A63.2103 63.2103 0 0 1 28.35 521.12 L0 521.12 L0 538.13 Z"
					class="st4"/>
		</g>
		<g id="shape17-46" v:mID="17" v:groupContext="shape" transform="translate(-278.515,333.311) rotate(-90) scale(-1,1)">
			<title>Curved arrow.17</title>
			<v:userDefs>
				<v:ud v:nameU="visVersion" v:val="VT0(11):26"/>
			</v:userDefs>
			<path d="M0 538.13 L28.35 538.13 A79.3701 79.3701 -180 0 0 107.72 458.76 L107.72 448.83 L116.22 448.83 L99.21 440.33
						 L82.2 448.83 L90.71 448.83 L90.71 458.76 A62.3622 62.3622 0 0 1 28.35 521.12 L0 521.12 L0 538.13 Z"
					class="st4"/>
		</g>
		<g id="shape19-48" v:mID="19" v:groupContext="shape" transform="translate(-145.287,248.271) rotate(-90) scale(-1,1)">
			<title>45 degree single.19</title>
			<v:userDefs>
				<v:ud v:nameU="visVersion" v:val="VT0(11):26"/>
			</v:userDefs>
			<path d="M0 526.79 L19.84 506.94 L19.84 520.04 L162.99 520.04 L162.99 533.53 L19.84 533.53 L19.84 546.63 L0 526.79 Z"
					class="st4"/>
		</g>
		<g id="shape20-50" v:mID="20" v:groupContext="shape" transform="translate(218.508,-298.358)">
			<title>Rounded rectangle.20</title>
			<desc>Approve Target</desc>
			<v:userDefs>
				<v:ud v:nameU="visVersion" v:val="VT0(11):26"/>
			</v:userDefs>
			<v:textBlock v:margins="rect(4,4,4,4)" v:tabSpace="42.5197"/>
			<v:textRect cx="35.4331" cy="525.369" width="70.87" height="42.5197"/>
			<path d="M56.69 546.63 A14.1733 14.1733 -180 0 0 70.87 532.46 L70.87 518.28 A14.1733 14.1733 -180 0 0 56.69 504.11 L14.17
						 504.11 A14.1733 14.1733 -180 0 0 -0 518.28 L0 532.46 A14.1733 14.1733 -180 0 0 14.17 546.63 L56.69 546.63
						 Z" class="st1"/>
			<text x="20.53" y="522.97" class="st2" v:langID="5129"><v:paragraph v:horizAlign="1"/><v:tabList/>Approve<v:newlineChar/><tspan
						x="23.87" dy="1.2em" class="st3">Target</tspan></text>		</g>
		<g id="shape5-54" v:mID="5" v:groupContext="shape" transform="translate(346.067,701.357) rotate(180)">
			<title>Curved arrow.5</title>
			<v:userDefs>
				<v:ud v:nameU="visVersion" v:val="VT0(11):26"/>
			</v:userDefs>
			<path d="M0 538.13 L68.03 538.13 A34.0157 34.0157 -180 0 0 102.05 504.11 L110.55 504.11 L93.54 495.61 L76.54 504.11 L85.04
						 504.11 A17.0079 17.0079 0 0 1 68.03 521.12 L0 521.12 L0 538.13 Z" class="st4"/>
		</g>
		<g id="shape14-56" v:mID="14" v:groupContext="shape" transform="translate(653.169,503.39) rotate(90) scale(-1,1)">
			<title>45 degree single.14</title>
			<v:userDefs>
				<v:ud v:nameU="visVersion" v:val="VT0(11):26"/>
			</v:userDefs>
			<path d="M0 526.79 L19.84 506.94 L19.84 520.04 L49.61 520.04 L49.61 533.53 L19.84 533.53 L19.84 546.63 L0 526.79 Z"
					class="st4"/>
		</g>
		<g id="shape18-58" v:mID="18" v:groupContext="shape" transform="translate(289.374,753.798) scale(1,-1)">
			<title>45 degree single.18</title>
			<v:userDefs>
				<v:ud v:nameU="visVersion" v:val="VT0(11):26"/>
			</v:userDefs>
			<path d="M0 526.79 L19.84 506.94 L19.84 520.04 L56.69 520.04 L56.69 533.53 L19.84 533.53 L19.84 546.63 L0 526.79 Z"
					class="st4"/>
		</g>
		<g id="shape21-60" v:mID="21" v:groupContext="shape" transform="translate(0.24,-406.074)">
			<title>Sheet.21</title>
			<path d="M0 546.63 L459.21 546.63" class="st5"/>
		</g>
		<g id="shape22-63" v:mID="22" v:groupContext="shape" transform="translate(0.24,-270.011)">
			<title>Sheet.22</title>
			<path d="M0 546.63 L459.21 546.63" class="st5"/>
		</g>
		<g id="shape23-66" v:mID="23" v:groupContext="shape" transform="translate(218.508,-503.87)">
			<title>Rounded rectangle.23</title>
			<desc>Request Rejected</desc>
			<v:userDefs>
				<v:ud v:nameU="visVersion" v:val="VT0(11):26"/>
			</v:userDefs>
			<v:textBlock v:margins="rect(4,4,4,4)" v:tabSpace="42.5197"/>
			<v:textRect cx="35.4331" cy="525.369" width="70.87" height="42.5197"/>
			<path d="M56.69 546.63 A14.1733 14.1733 -180 0 0 70.87 532.46 L70.87 518.28 A14.1733 14.1733 -180 0 0 56.69 504.11 L14.17
						 504.11 A14.1733 14.1733 -180 0 0 0 518.28 L0 532.46 A14.1733 14.1733 -180 0 0 14.17 546.63 L56.69 546.63
						 Z" class="st1"/>
			<text x="20.53" y="522.97" class="st2" v:langID="5129"><v:paragraph v:horizAlign="1"/><v:tabList/>Request<v:newlineChar/><tspan
						x="19.65" dy="1.2em" class="st3">Rejected</tspan></text>		</g>
		<g id="shape24-70" v:mID="24" v:groupContext="shape" transform="translate(-272.846,42.7597) rotate(-90) scale(-1,1)">
			<title>45 degree single.24</title>
			<v:userDefs>
				<v:ud v:nameU="visVersion" v:val="VT0(11):26"/>
			</v:userDefs>
			<path d="M0 526.79 L15.94 506.94 L15.94 520.04 L35.43 520.04 L35.43 533.53 L15.94 533.53 L15.94 546.63 L0 526.79 Z"
					class="st4"/>
		</g>
		<g id="shape29-72" v:mID="29" v:groupContext="shape" transform="translate(302.234,-208.04) rotate(9.1452) scale(-1,1)">
			<title>45 degree single.29</title>
			<v:userDefs>
				<v:ud v:nameU="visVersion" v:val="VT0(11):26"/>
			</v:userDefs>
			<path d="M0 526.79 L19.84 506.94 L19.84 520.04 L80.26 520.04 L80.26 533.53 L19.84 533.53 L19.84 546.63 L0 526.79 Z"
					class="st4"/>
		</g>
		<g id="group25-74" transform="translate(139.138,-270.011)" v:mID="25" v:groupContext="group">
			<title>Sheet.25</title>
			<g id="shape26-75" v:mID="26" v:groupContext="shape">
				<title>Center drag circle</title>
				<v:userDefs>
					<v:ud v:nameU="visVersion" v:val="VT0(11):26"/>
				</v:userDefs>
				<path d="M-22.68 546.63 A22.6772 22.6772 0 0 1 22.68 546.63 A22.6772 22.6772 0 1 1 -22.68 546.63 Z" class="st1"/>
			</g>
			<g id="shape27-79" v:mID="27" v:groupContext="shape" transform="translate(-546.629,546.629) rotate(-90)">
				<title>Sheet.27</title>
				<path d="M0 546.63 L13.91 546.63" class="st7"/>
			</g>
			<g id="shape28-84" v:mID="28" v:groupContext="shape">
				<title>Sheet.28</title>
				<path d="M0 546.63 L8.24 546.63" class="st7"/>
			</g>
		</g>
		<g id="shape30-89" v:mID="30" v:groupContext="shape" transform="translate(-512.374,120.712) rotate(-90)">
			<title>Sheet.30</title>
			<desc>Authorisation</desc>
			<v:textBlock v:margins="rect(4,4,4,4)" v:tabSpace="42.5197"/>
			<v:textRect cx="52.4409" cy="539.543" width="104.89" height="14.1732"/>
			<path d="M0 546.63 L104.88 546.63 L104.88 532.46 L0 532.46 L0 546.63 Z" class="st8"/>
			<text x="29.09" y="541.94" class="st2" v:langID="5129"><v:paragraph v:horizAlign="1"/><v:tabList/>Authorisation</text>		</g>
		<g id="shape31-92" v:mID="31" v:groupContext="shape" transform="translate(-512.374,261.027) rotate(-90)">
			<title>Sheet.31</title>
			<desc>Targets</desc>
			<v:textBlock v:margins="rect(4,4,4,4)" v:tabSpace="42.5197"/>
			<v:textRect cx="55.2756" cy="539.543" width="110.56" height="14.1732"/>
			<path d="M0 546.63 L110.55 546.63 L110.55 532.46 L0 532.46 L0 546.63 Z" class="st8"/>
			<text x="41.72" y="541.94" class="st2" v:langID="5129"><v:paragraph v:horizAlign="1"/><v:tabList/>Targets</text>		</g>
		<g id="shape32-95" v:mID="32" v:groupContext="shape" transform="translate(-512.374,545.909) rotate(-90)">
			<title>Sheet.32</title>
			<desc>Target Instances</desc>
			<v:textBlock v:margins="rect(4,4,4,4)" v:tabSpace="42.5197"/>
			<v:textRect cx="127.559" cy="539.543" width="255.12" height="14.1732"/>
			<path d="M0 546.63 L255.12 546.63 L255.12 532.46 L0 532.46 L0 546.63 Z" class="st8"/>
			<text x="97.77" y="541.94" class="st2" v:langID="5129"><v:paragraph v:horizAlign="1"/><v:tabList/>Target Instances</text>		</g>
	</g>
</svg>
