<?xml version="1.0" encoding="UTF-8" standalone="no"?>
<!DOCTYPE svg PUBLIC "-//W3C//DTD SVG 1.0//EN" "http://www.w3.org/TR/2001/REC-SVG-20010904/DTD/svg10.dtd">
<!-- Generated by Microsoft Visio 11.0, SVG Export, v1.0 WCT-workflow-detailed.svg Page-1 -->
<svg xmlns="http://www.w3.org/2000/svg" xmlns:xlink="http://www.w3.org/1999/xlink" xmlns:ev="http://www.w3.org/2001/xml-events"
		xmlns:v="http://schemas.microsoft.com/visio/2003/SVGExtensions/" width="7.09328in" height="10.8334in"
		viewBox="0 0 510.716 780.008" xml:space="preserve" color-interpolation-filters="sRGB" class="st15">
	<v:documentProperties v:langID="1033" v:metric="true" v:viewMarkup="false"/>

	<style type="text/css">
	<![CDATA[
		.st1 {fill:#ffffff;stroke:#000000;stroke-linecap:round;stroke-linejoin:round;stroke-width:0.24}
		.st2 {fill:#000000;font-family:Arial;font-size:0.833336em;font-weight:bold}
		.st3 {fill:#e8eef7;stroke:#000000;stroke-linecap:round;stroke-linejoin:round;stroke-width:0.24}
		.st4 {fill:#000000;font-family:Arial;font-size:0.666664em}
		.st5 {font-size:1em}
		.st6 {stroke:#000000;stroke-linecap:round;stroke-linejoin:round;stroke-width:0.24}
		.st7 {marker-end:url(#mrkr4-121);stroke:#4677bf;stroke-linecap:round;stroke-linejoin:round;stroke-width:0.24}
		.st8 {fill:#4677bf;fill-opacity:1;stroke:#4677bf;stroke-opacity:1;stroke-width:0.08695652173913}
		.st9 {fill:#ffffff;stroke:none;stroke-linecap:butt;stroke-width:7.2}
		.st10 {fill:#000000;fill-opacity:1;stroke:#000000;stroke-opacity:1;stroke-width:0.057142857142857}
		.st11 {marker-end:url(#mrkr5-277);stroke:#000000;stroke-linecap:round;stroke-linejoin:round;stroke-width:0.24}
		.st12 {fill:#000000;fill-opacity:1;stroke:#000000;stroke-opacity:1;stroke-width:0.08695652173913}
		.st13 {marker-end:url(#mrkr5-299);stroke:#000000;stroke-linecap:round;stroke-linejoin:round;stroke-width:0.24}
		.st14 {fill:none;stroke:none;stroke-linecap:round;stroke-linejoin:round;stroke-width:0.72}
		.st15 {fill:none;fill-rule:evenodd;font-size:12;overflow:visible;stroke-linecap:square;stroke-miterlimit:3}
	]]>
	</style>

	<defs id="Markers">
		<g id="lend4">
			<path d="M 2 1 L 0 0 L 2 -1 L 2 1 " style="stroke:none"/>
		</g>
		<marker id="mrkr4-121" class="st8" v:arrowType="4" v:arrowSize="2" v:setback="23" refX="-23" orient="auto"
				markerUnits="strokeWidth">
			<use xlink:href="#lend4" transform="scale(-11.5,-11.5) "/>
		</marker>
		<g id="lend5">
			<path d="M 2 1 L 0 0 L 1.98117 -0.993387 C 1.67173 -0.364515 1.67301 0.372641 1.98465 1.00043 " style="stroke:none"/>
		</g>
		<marker id="mrkr5-277" class="st10" v:arrowType="5" v:arrowSize="4" v:setback="30.625" refX="-30.625" orient="auto"
				markerUnits="strokeWidth">
			<use xlink:href="#lend5" transform="scale(-17.5,-17.5) "/>
		</marker>
		<marker id="mrkr5-299" class="st12" v:arrowType="5" v:arrowSize="2" v:setback="20.125" refX="-20.125" orient="auto"
				markerUnits="strokeWidth">
			<use xlink:href="#lend5" transform="scale(-11.5,-11.5) "/>
		</marker>
	</defs>
	<g v:mID="0" v:index="1" v:groupContext="foregroundPage">
		<v:userDefs>
			<v:ud v:nameU="SchemeName" v:val="VT4(Default)"/>
		</v:userDefs>
		<title>Page-1</title>
		<v:pageProperties v:drawingScale="0.0393701" v:pageScale="0.0393701" v:drawingUnits="24" v:shadowOffsetX="8.50394"
				v:shadowOffsetY="-8.50394"/>
		<v:layer v:name="Connector" v:index="0"/>
		<v:layer v:name="Flowchart" v:index="1"/>
		<g id="shape69-1" v:mID="69" v:groupContext="shape" transform="translate(0.24,-0.24)">
			<title>Sheet.69</title>
			<desc>Legend</desc>
			<v:textBlock v:margins="rect(4,4,4,4)" v:tabSpace="42.5197" v:verticalAlign="0"/>
			<v:textRect cx="233.858" cy="744.574" width="467.72" height="70.8661"/>
			<rect x="0" y="709.141" width="467.717" height="70.8661" class="st1"/>
			<text x="216.08" y="722.14" class="st2" v:langID="5129"><v:paragraph v:horizAlign="1"/><v:tabList/>Legend</text>		</g>
		<g id="shape1-4" v:mID="1" v:groupContext="shape" transform="translate(14.4132,-737.248)">
			<title>Rounded rectangle</title>
			<desc>Identify Site to Harvest</desc>
			<v:userDefs>
				<v:ud v:nameU="visVersion" v:val="VT0(11):26"/>
			</v:userDefs>
			<v:textBlock v:margins="rect(4,4,4,4)" v:tabSpace="42.5197"/>
			<v:textRect cx="56.6929" cy="758.748" width="113.39" height="42.5197"/>
			<path d="M99.21 780.01 A14.1733 14.1733 -180 0 0 113.39 765.83 L113.39 751.66 A14.1733 14.1733 -180 0 0 99.21 737.49
						 L14.17 737.49 A14.1733 14.1733 -180 0 0 0 751.66 L0 765.83 A14.1733 14.1733 -180 0 0 14.17 780.01 L99.21
						 780.01 Z" class="st3"/>
			<text x="16.45" y="761.15" class="st4" v:langID="5129"><v:paragraph v:horizAlign="1"/><v:tabList/>Identify Site to Harvest</text>		</g>
		<g id="shape2-7" v:mID="2" v:groupContext="shape" transform="translate(156.146,-737.248)">
			<title>Rounded rectangle.2</title>
			<desc>Create Permission Record with Assign Approval Task (Pending S...</desc>
			<v:userDefs>
				<v:ud v:nameU="visVersion" v:val="VT0(11):26"/>
			</v:userDefs>
			<v:textBlock v:margins="rect(4,4,4,4)" v:tabSpace="42.5197"/>
			<v:textRect cx="56.6929" cy="758.748" width="113.39" height="42.5197"/>
			<path d="M99.21 780.01 A14.1733 14.1733 -180 0 0 113.39 765.83 L113.39 751.66 A14.1733 14.1733 -180 0 0 99.21 737.49
						 L14.17 737.49 A14.1733 14.1733 -180 0 0 0 751.66 L0 765.83 A14.1733 14.1733 -180 0 0 14.17 780.01 L99.21
						 780.01 Z" class="st3"/>
			<text x="9.79" y="751.55" class="st4" v:langID="5129"><v:paragraph v:horizAlign="1"/><v:tabList/>Create Permission Record <tspan
						x="9.78" dy="1.2em" class="st5">with Assign Approval Task<v:newlineChar/></tspan><tspan x="28.9" dy="1.2em"
						class="st5">(</tspan>Pending State)</text>		</g>
		<g id="group5-12" transform="translate(297.878,-737.248)" v:mID="5" v:groupContext="group">
			<title>Sheet.5</title>
			<g id="shape3-13" v:mID="3" v:groupContext="shape">
				<title>Rectangle</title>
				<desc>Approve Permission Task</desc>
				<v:userDefs>
					<v:ud v:nameU="visVersion" v:val="VT0(11):26"/>
				</v:userDefs>
				<v:textBlock v:margins="rect(4,4,4,4)" v:tabSpace="42.5197"/>
				<v:textRect cx="56.6929" cy="758.748" width="113.39" height="42.5197"/>
				<rect x="0" y="737.488" width="113.386" height="42.5197" class="st3"/>
				<text x="11.12" y="761.15" class="st4" v:langID="5129"><v:paragraph v:horizAlign="1"/><v:tabList/>Approve Permission Task</text>			</g>
			<g id="shape4-16" v:mID="4" v:groupContext="shape" transform="translate(0,-34.0157)">
				<title>Sheet.4</title>
				<path d="M0 771.5 L56.69 780.01 L113.39 771.5" class="st6"/>
			</g>
		</g>
		<g id="shape6-19" v:mID="6" v:groupContext="shape" transform="translate(297.878,-666.382)">
			<title>Rounded rectangle.6</title>
			<desc>Generate Permission Request</desc>
			<v:userDefs>
				<v:ud v:nameU="visVersion" v:val="VT0(11):26"/>
			</v:userDefs>
			<v:textBlock v:margins="rect(4,4,4,4)" v:tabSpace="42.5197"/>
			<v:textRect cx="56.6929" cy="758.748" width="113.39" height="42.5197"/>
			<path d="M99.21 780.01 A14.1733 14.1733 -180 0 0 113.39 765.83 L113.39 751.66 A14.1733 14.1733 -180 0 0 99.21 737.49
						 L14.17 737.49 A14.1733 14.1733 -180 0 0 0 751.66 L0 765.83 A14.1733 14.1733 -180 0 0 14.17 780.01 L99.21
						 780.01 Z" class="st3"/>
			<text x="19.12" y="756.35" class="st4" v:langID="5129"><v:paragraph v:horizAlign="1"/><v:tabList/>Generate Permission <tspan
						x="41.79" dy="1.2em" class="st5">Request</tspan></text>		</g>
		<g id="shape7-23" v:mID="7" v:groupContext="shape" transform="translate(156.146,-648.967)">
			<title>Rounded rectangle.7</title>
			<desc>Mail or E-mail Permission Request Letter (this automatically ...</desc>
			<v:userDefs>
				<v:ud v:nameU="visVersion" v:val="VT0(11):26"/>
			</v:userDefs>
			<v:textBlock v:margins="rect(4,4,4,4)" v:tabSpace="42.5197"/>
			<v:textRect cx="56.6929" cy="750.04" width="113.39" height="59.9349"/>
			<path d="M99.21 780.01 A14.1733 14.1733 -180 0 0 113.39 765.83 L113.39 734.25 A14.1733 14.1733 -180 0 0 99.21 720.07
						 L14.17 720.07 A14.1733 14.1733 -180 0 0 0 734.25 L0 765.83 A14.1733 14.1733 -180 0 0 14.17 780.01 L99.21
						 780.01 Z" class="st3"/>
			<text x="11.35" y="733.24" class="st4" v:langID="2057"><v:paragraph v:horizAlign="1"/><v:tabList/>Mail or E-mail Permission <tspan
						x="21.79" dy="1.2em" class="st5">Request Letter </tspan>(this <tspan x="21.35" dy="1.2em" class="st5">automatically Marks </tspan><tspan
						x="9.59" dy="1.2em" class="st5">Permission as </tspan>&#39;Requested&#39; <tspan x="34.68" dy="1.2em"
						class="st5">(</tspan>Requested)</text>		</g>
		<g id="shape9-30" v:mID="9" v:groupContext="shape" transform="translate(156.146,-595.516)">
			<title>Rounded rectangle.9</title>
			<desc>Mark Permission as Rejected (Rejected)</desc>
			<v:userDefs>
				<v:ud v:nameU="visVersion" v:val="VT0(11):26"/>
			</v:userDefs>
			<v:textBlock v:margins="rect(4,4,4,4)" v:tabSpace="42.5197"/>
			<v:textRect cx="56.6929" cy="758.748" width="113.39" height="42.5197"/>
			<path d="M99.21 780.01 A14.1733 14.1733 -180 0 0 113.39 765.83 L113.39 751.66 A14.1733 14.1733 -180 0 0 99.21 737.49
						 L14.17 737.49 A14.1733 14.1733 -180 0 0 0 751.66 L0 765.83 A14.1733 14.1733 -180 0 0 14.17 780.01 L99.21
						 780.01 Z" class="st3"/>
			<text x="4.68" y="756.35" class="st4" v:langID="5129"><v:paragraph v:horizAlign="1"/><v:tabList/>Mark Permission as Rejected<v:newlineChar/><tspan
						x="38.24" dy="1.2em" class="st5">(</tspan>Rejected)</text>		</g>
		<g id="shape10-34" v:mID="10" v:groupContext="shape" transform="translate(14.4132,-524.649)">
			<title>Rounded rectangle.10</title>
			<desc>Mark Permission as Approved (Approved)</desc>
			<v:userDefs>
				<v:ud v:nameU="visVersion" v:val="VT0(11):26"/>
			</v:userDefs>
			<v:textBlock v:margins="rect(4,4,4,4)" v:tabSpace="42.5197"/>
			<v:textRect cx="56.6929" cy="758.748" width="113.39" height="42.5197"/>
			<path d="M99.21 780.01 A14.1733 14.1733 -180 0 0 113.39 765.83 L113.39 751.66 A14.1733 14.1733 -180 0 0 99.21 737.49
						 L14.17 737.49 A14.1733 14.1733 -180 0 0 0 751.66 L0 765.83 A14.1733 14.1733 -180 0 0 14.17 780.01 L99.21
						 780.01 Z" class="st3"/>
			<text x="21.57" y="751.55" class="st4" v:langID="5129"><v:paragraph v:horizAlign="1"/><v:tabList/>Mark Permission as <tspan
						x="39.57" dy="1.2em" class="st5">Approved<v:newlineChar/></tspan><tspan x="36.91" dy="1.2em" class="st5">(</tspan>Approved)</text>		</g>
		<g id="shape11-39" v:mID="11" v:groupContext="shape" transform="translate(22.9172,-595.516)">
			<title>Hexagon</title>
			<desc>Is Permission Approved?</desc>
			<v:userDefs>
				<v:ud v:nameU="visVersion" v:val="VT0(11):26"/>
			</v:userDefs>
			<v:textBlock v:margins="rect(4,4,4,4)" v:tabSpace="42.5197"/>
			<v:textRect cx="48.189" cy="758.748" width="96.38" height="42.5197"/>
			<path d="M76.01 737.49 L20.37 737.49 L-7.45 758.75 L20.37 780.01 L76.01 780.01 L103.83 758.75 L76.01 737.49 Z"
					class="st3"/>
			<text x="24.18" y="756.35" class="st4" v:langID="5129"><v:paragraph v:horizAlign="1"/><v:tabList/>Is Permission <tspan
						x="28.84" dy="1.2em" class="st5">Approved</tspan>?</text>		</g>
		<g id="shape12-43" v:mID="12" v:groupContext="shape" transform="translate(156.146,-524.649)">
			<title>Rounded rectangle.12</title>
			<desc>Create Target (Pending State)</desc>
			<v:userDefs>
				<v:ud v:nameU="visVersion" v:val="VT0(11):26"/>
			</v:userDefs>
			<v:textBlock v:margins="rect(4,4,4,4)" v:tabSpace="42.5197"/>
			<v:textRect cx="56.6929" cy="758.748" width="113.39" height="42.5197"/>
			<path d="M99.21 780.01 A14.1733 14.1733 -180 0 0 113.39 765.83 L113.39 751.66 A14.1733 14.1733 -180 0 0 99.21 737.49
						 L14.17 737.49 A14.1733 14.1733 -180 0 0 0 751.66 L0 765.83 A14.1733 14.1733 -180 0 0 14.17 780.01 L99.21
						 780.01 Z" class="st3"/>
			<text x="32.02" y="756.35" class="st4" v:langID="5129"><v:paragraph v:horizAlign="1"/><v:tabList/>Create Target<v:newlineChar/><tspan
						x="28.9" dy="1.2em" class="st5">(</tspan>Pending State)</text>		</g>
		<g id="shape13-47" v:mID="13" v:groupContext="shape" transform="translate(297.878,-524.649)">
			<title>Rounded rectangle.13</title>
			<desc>Sets seeds and attach permissions</desc>
			<v:userDefs>
				<v:ud v:nameU="visVersion" v:val="VT0(11):26"/>
			</v:userDefs>
			<v:textBlock v:margins="rect(4,4,4,4)" v:tabSpace="42.5197"/>
			<v:textRect cx="56.6929" cy="758.748" width="113.39" height="42.5197"/>
			<path d="M99.21 780.01 A14.1733 14.1733 -180 0 0 113.39 765.83 L113.39 751.66 A14.1733 14.1733 -180 0 0 99.21 737.49
						 L14.17 737.49 A14.1733 14.1733 -180 0 0 0 751.66 L0 765.83 A14.1733 14.1733 -180 0 0 14.17 780.01 L99.21
						 780.01 Z" class="st3"/>
			<text x="17.11" y="756.35" class="st4" v:langID="5129"><v:paragraph v:horizAlign="1"/><v:tabList/>Sets seeds and attach <tspan
						x="35.35" dy="1.2em" class="st5">permissions</tspan></text>		</g>
		<g id="shape14-51" v:mID="14" v:groupContext="shape" transform="translate(297.878,-453.783)">
			<title>Rounded rectangle.14</title>
			<desc>Nominate Target (Nominated State)</desc>
			<v:userDefs>
				<v:ud v:nameU="visVersion" v:val="VT0(11):26"/>
			</v:userDefs>
			<v:textBlock v:margins="rect(4,4,4,4)" v:tabSpace="42.5197"/>
			<v:textRect cx="56.6929" cy="758.748" width="113.39" height="42.5197"/>
			<path d="M99.21 780.01 A14.1733 14.1733 -180 0 0 113.39 765.83 L113.39 751.66 A14.1733 14.1733 -180 0 0 99.21 737.49
						 L14.17 737.49 A14.1733 14.1733 -180 0 0 0 751.66 L0 765.83 A14.1733 14.1733 -180 0 0 14.17 780.01 L99.21
						 780.01 Z" class="st3"/>
			<text x="26.9" y="756.35" class="st4" v:langID="5129"><v:paragraph v:horizAlign="1"/><v:tabList/>Nominate Target<v:newlineChar/><tspan
						x="24.23" dy="1.2em" class="st5">(</tspan>Nominated State)</text>		</g>
		<g id="group15-55" transform="translate(156.146,-453.783)" v:mID="15" v:groupContext="group">
			<title>Sheet.15</title>
			<desc>Approve Target Task</desc>
			<g id="shape16-56" v:mID="16" v:groupContext="shape">
				<title>Rectangle</title>
				<v:userDefs>
					<v:ud v:nameU="visVersion" v:val="VT0(11):26"/>
				</v:userDefs>
				<rect x="0" y="737.488" width="113.386" height="42.5197" class="st3"/>
			</g>
			<g id="shape17-58" v:mID="17" v:groupContext="shape" transform="translate(0,-34.0157)">
				<title>Sheet.17</title>
				<path d="M0 771.5 L56.69 780.01 L113.39 771.5" class="st6"/>
			</g>
			<g id="shape15-61" v:mID="15" v:groupContext="groupContent">
				<v:textBlock v:margins="rect(4,4,4,4)" v:tabSpace="42.5197"/>
				<v:textRect cx="56.6929" cy="758.748" width="113.39" height="42.5197"/>
				<text x="19.34" y="761.15" class="st4" v:langID="5129"><v:paragraph v:horizAlign="1"/><v:tabList/>Approve Target Task</text>			</g>
		</g>
		<g id="shape18-63" v:mID="18" v:groupContext="shape" transform="translate(14.4132,-453.783)">
			<title>Rounded rectangle.18</title>
			<desc>Review Target</desc>
			<v:userDefs>
				<v:ud v:nameU="visVersion" v:val="VT0(11):26"/>
			</v:userDefs>
			<v:textBlock v:margins="rect(4,4,4,4)" v:tabSpace="42.5197"/>
			<v:textRect cx="56.6929" cy="758.748" width="113.39" height="42.5197"/>
			<path d="M99.21 780.01 A14.1733 14.1733 -180 0 0 113.39 765.83 L113.39 751.66 A14.1733 14.1733 -180 0 0 99.21 737.49
						 L14.17 737.49 A14.1733 14.1733 -180 0 0 0 751.66 L0 765.83 A14.1733 14.1733 -180 0 0 14.17 780.01 L99.21
						 780.01 Z" class="st3"/>
			<text x="30.91" y="761.15" class="st4" v:langID="5129"><v:paragraph v:horizAlign="1"/><v:tabList/>Review Target</text>		</g>
		<g id="shape19-66" v:mID="19" v:groupContext="shape" transform="translate(14.4132,-312.051)">
			<title>Rounded rectangle.19</title>
			<desc>Approve Target (Approved)</desc>
			<v:userDefs>
				<v:ud v:nameU="visVersion" v:val="VT0(11):26"/>
			</v:userDefs>
			<v:textBlock v:margins="rect(4,4,4,4)" v:tabSpace="42.5197"/>
			<v:textRect cx="56.6929" cy="758.748" width="113.39" height="42.5197"/>
			<path d="M99.21 780.01 A14.1733 14.1733 -180 0 0 113.39 765.83 L113.39 751.66 A14.1733 14.1733 -180 0 0 99.21 737.49
						 L14.17 737.49 A14.1733 14.1733 -180 0 0 0 751.66 L0 765.83 A14.1733 14.1733 -180 0 0 14.17 780.01 L99.21
						 780.01 Z" class="st3"/>
			<text x="29.12" y="756.35" class="st4" v:langID="5129"><v:paragraph v:horizAlign="1"/><v:tabList/>Approve Target<v:newlineChar/><tspan
						x="36.91" dy="1.2em" class="st5">(</tspan>Approved)</text>		</g>
		<g id="shape20-70" v:mID="20" v:groupContext="shape" transform="translate(156.146,-382.917)">
			<title>Rounded rectangle.20</title>
			<desc>Reject Target (Rejected)</desc>
			<v:userDefs>
				<v:ud v:nameU="visVersion" v:val="VT0(11):26"/>
			</v:userDefs>
			<v:textBlock v:margins="rect(4,4,4,4)" v:tabSpace="42.5197"/>
			<v:textRect cx="56.6929" cy="758.748" width="113.39" height="42.5197"/>
			<path d="M99.21 780.01 A14.1733 14.1733 -180 0 0 113.39 765.83 L113.39 751.66 A14.1733 14.1733 -180 0 0 99.21 737.49
						 L14.17 737.49 A14.1733 14.1733 -180 0 0 0 751.66 L0 765.83 A14.1733 14.1733 -180 0 0 14.17 780.01 L99.21
						 780.01 Z" class="st3"/>
			<text x="32.68" y="756.35" class="st4" v:langID="5129"><v:paragraph v:horizAlign="1"/><v:tabList/>Reject Target<v:newlineChar/><tspan
						x="38.24" dy="1.2em" class="st5">(</tspan>Rejected)</text>		</g>
		<g id="shape21-74" v:mID="21" v:groupContext="shape" transform="translate(297.878,-382.917)">
			<title>Rounded rectangle.21</title>
			<desc>Tune Target</desc>
			<v:userDefs>
				<v:ud v:nameU="visVersion" v:val="VT0(11):26"/>
			</v:userDefs>
			<v:textBlock v:margins="rect(4,4,4,4)" v:tabSpace="42.5197"/>
			<v:textRect cx="56.6929" cy="758.748" width="113.39" height="42.5197"/>
			<path d="M99.21 780.01 A14.1733 14.1733 -180 0 0 113.39 765.83 L113.39 751.66 A14.1733 14.1733 -180 0 0 99.21 737.49
						 L14.17 737.49 A14.1733 14.1733 -180 0 0 0 751.66 L0 765.83 A14.1733 14.1733 -180 0 0 14.17 780.01 L99.21
						 780.01 Z" class="st3"/>
			<text x="34.9" y="761.15" class="st4" v:langID="5129"><v:paragraph v:horizAlign="1"/><v:tabList/>Tune Target</text>		</g>
		<g id="shape22-77" v:mID="22" v:groupContext="shape" transform="translate(22.9172,-382.917)">
			<title>Hexagon.22</title>
			<desc>Is Target acceptable?</desc>
			<v:userDefs>
				<v:ud v:nameU="visVersion" v:val="VT0(11):26"/>
			</v:userDefs>
			<v:textBlock v:margins="rect(4,4,4,4)" v:tabSpace="42.5197"/>
			<v:textRect cx="48.189" cy="758.748" width="96.38" height="42.5197"/>
			<path d="M76.01 737.49 L20.37 737.49 L-7.45 758.75 L20.37 780.01 L76.01 780.01 L103.83 758.75 L76.01 737.49 Z"
					class="st3"/>
			<text x="9.72" y="761.15" class="st4" v:langID="5129"><v:paragraph v:horizAlign="1"/><v:tabList/>Is Target acceptable?</text>		</g>
		<g id="shape23-80" v:mID="23" v:groupContext="shape" transform="translate(156.146,-312.051)">
			<title>Rectangle</title>
			<desc>Schedule Instances</desc>
			<v:userDefs>
				<v:ud v:nameU="visVersion" v:val="VT0(11):26"/>
			</v:userDefs>
			<v:textBlock v:margins="rect(4,4,4,4)" v:tabSpace="42.5197"/>
			<v:textRect cx="56.6929" cy="758.748" width="113.39" height="42.5197"/>
			<rect x="0" y="737.488" width="113.386" height="42.5197" class="st3"/>
			<text x="21.78" y="761.15" class="st4" v:langID="5129"><v:paragraph v:horizAlign="1"/><v:tabList/>Schedule Instances</text>		</g>
		<g id="shape24-83" v:mID="24" v:groupContext="shape" transform="translate(14.4132,-241.185)">
			<title>Rectangle.24</title>
			<desc>Run Harvest</desc>
			<v:userDefs>
				<v:ud v:nameU="visVersion" v:val="VT0(11):26"/>
			</v:userDefs>
			<v:textBlock v:margins="rect(4,4,4,4)" v:tabSpace="42.5197"/>
			<v:textRect cx="56.6929" cy="758.748" width="113.39" height="42.5197"/>
			<rect x="0" y="737.488" width="113.386" height="42.5197" class="st3"/>
			<text x="34.46" y="761.15" class="st4" v:langID="5129"><v:paragraph v:horizAlign="1"/><v:tabList/>Run Harvest</text>		</g>
		<g id="group25-86" transform="translate(156.146,-241.185)" v:mID="25" v:groupContext="group">
			<title>Sheet.25</title>
			<desc>Quality Review Task</desc>
			<g id="shape26-87" v:mID="26" v:groupContext="shape">
				<title>Rectangle</title>
				<v:userDefs>
					<v:ud v:nameU="visVersion" v:val="VT0(11):26"/>
				</v:userDefs>
				<rect x="0" y="737.488" width="113.386" height="42.5197" class="st3"/>
			</g>
			<g id="shape27-89" v:mID="27" v:groupContext="shape" transform="translate(0,-34.0157)">
				<title>Sheet.27</title>
				<path d="M0 771.5 L56.69 780.01 L113.39 771.5" class="st6"/>
			</g>
			<g id="shape25-92" v:mID="25" v:groupContext="groupContent">
				<v:textBlock v:margins="rect(4,4,4,4)" v:tabSpace="42.5197"/>
				<v:textRect cx="56.6929" cy="758.748" width="113.39" height="42.5197"/>
				<text x="20.24" y="761.15" class="st4" v:langID="5129"><v:paragraph v:horizAlign="1"/><v:tabList/>Quality Review Task</text>			</g>
		</g>
		<g id="shape28-94" v:mID="28" v:groupContext="shape" transform="translate(297.878,-241.185)">
			<title>Rounded rectangle.28</title>
			<desc>Review Target Instance</desc>
			<v:userDefs>
				<v:ud v:nameU="visVersion" v:val="VT0(11):26"/>
			</v:userDefs>
			<v:textBlock v:margins="rect(4,4,4,4)" v:tabSpace="42.5197"/>
			<v:textRect cx="56.6929" cy="758.748" width="113.39" height="42.5197"/>
			<path d="M99.21 780.01 A14.1733 14.1733 -180 0 0 113.39 765.83 L113.39 751.66 A14.1733 14.1733 -180 0 0 99.21 737.49
						 L14.17 737.49 A14.1733 14.1733 -180 0 0 0 751.66 L0 765.83 A14.1733 14.1733 -180 0 0 14.17 780.01 L99.21
						 780.01 Z" class="st3"/>
			<text x="14.67" y="761.15" class="st4" v:langID="5129"><v:paragraph v:horizAlign="1"/><v:tabList/>Review Target Instance</text>		</g>
		<g id="shape29-97" v:mID="29" v:groupContext="shape" transform="translate(164.649,-170.319)">
			<title>Hexagon.29</title>
			<desc>Is Harvest Okay?</desc>
			<v:userDefs>
				<v:ud v:nameU="visVersion" v:val="VT0(11):26"/>
			</v:userDefs>
			<v:textBlock v:margins="rect(4,4,4,4)" v:tabSpace="42.5197"/>
			<v:textRect cx="48.189" cy="758.748" width="96.38" height="42.5197"/>
			<path d="M76.01 737.49 L20.37 737.49 L-7.45 758.75 L20.37 780.01 L76.01 780.01 L103.83 758.75 L76.01 737.49 Z"
					class="st3"/>
			<text x="17.51" y="761.15" class="st4" v:langID="5129"><v:paragraph v:horizAlign="1"/><v:tabList/>Is Harvest Okay?</text>		</g>
		<g id="shape30-100" v:mID="30" v:groupContext="shape" transform="translate(14.4132,-170.319)">
			<title>Rounded rectangle.30</title>
			<desc>Endorse Harvest (Endorsed)</desc>
			<v:userDefs>
				<v:ud v:nameU="visVersion" v:val="VT0(11):26"/>
			</v:userDefs>
			<v:textBlock v:margins="rect(4,4,4,4)" v:tabSpace="42.5197"/>
			<v:textRect cx="56.6929" cy="758.748" width="113.39" height="42.5197"/>
			<path d="M99.21 780.01 A14.1733 14.1733 -180 0 0 113.39 765.83 L113.39 751.66 A14.1733 14.1733 -180 0 0 99.21 737.49
						 L14.17 737.49 A14.1733 14.1733 -180 0 0 0 751.66 L0 765.83 A14.1733 14.1733 -180 0 0 14.17 780.01 L99.21
						 780.01 Z" class="st3"/>
			<text x="26.9" y="756.35" class="st4" v:langID="5129"><v:paragraph v:horizAlign="1"/><v:tabList/>Endorse Harvest<v:newlineChar/><tspan
						x="36.91" dy="1.2em" class="st5">(</tspan>Endorsed)</text>		</g>
		<g id="group31-104" transform="translate(14.4132,-99.4526)" v:mID="31" v:groupContext="group">
			<title>Sheet.31</title>
			<desc>Archive Harvest Task</desc>
			<g id="shape32-105" v:mID="32" v:groupContext="shape">
				<title>Rectangle</title>
				<v:userDefs>
					<v:ud v:nameU="visVersion" v:val="VT0(11):26"/>
				</v:userDefs>
				<rect x="0" y="737.488" width="113.386" height="42.5197" class="st3"/>
			</g>
			<g id="shape33-107" v:mID="33" v:groupContext="shape" transform="translate(0,-34.0157)">
				<title>Sheet.33</title>
				<path d="M0 771.5 L56.69 780.01 L113.39 771.5" class="st6"/>
			</g>
			<g id="shape31-110" v:mID="31" v:groupContext="groupContent">
				<v:textBlock v:margins="rect(4,4,4,4)" v:tabSpace="42.5197"/>
				<v:textRect cx="56.6929" cy="758.748" width="113.39" height="42.5197"/>
				<text x="18.68" y="761.15" class="st4" v:langID="5129"><v:paragraph v:horizAlign="1"/><v:tabList/>Archive Harvest Task</text>			</g>
		</g>
		<g id="shape34-112" v:mID="34" v:groupContext="shape" transform="translate(156.146,-99.4526)">
			<title>Rounded rectangle.34</title>
			<desc>Archive Harvest (Archived)</desc>
			<v:userDefs>
				<v:ud v:nameU="visVersion" v:val="VT0(11):26"/>
			</v:userDefs>
			<v:textBlock v:margins="rect(4,4,4,4)" v:tabSpace="42.5197"/>
			<v:textRect cx="56.6929" cy="758.748" width="113.39" height="42.5197"/>
			<path d="M99.21 780.01 A14.1733 14.1733 -180 0 0 113.39 765.83 L113.39 751.66 A14.1733 14.1733 -180 0 0 99.21 737.49
						 L14.17 737.49 A14.1733 14.1733 -180 0 0 0 751.66 L0 765.83 A14.1733 14.1733 -180 0 0 14.17 780.01 L99.21
						 780.01 Z" class="st3"/>
			<text x="28.46" y="756.35" class="st4" v:langID="5129"><v:paragraph v:horizAlign="1"/><v:tabList/>Archive Harvest<v:newlineChar/><tspan
						x="38.47" dy="1.2em" class="st5">(</tspan>Archived)</text>		</g>
		<g id="shape35-116" v:mID="35" v:groupContext="shape" v:layerMember="0" transform="translate(127.799,-751.421)">
			<title>Dynamic connector</title>
			<path d="M0 772.92 L22.83 772.92" class="st7"/>
		</g>
		<g id="shape36-122" v:mID="36" v:groupContext="shape" v:layerMember="0" transform="translate(269.531,-751.421)">
			<title>Dynamic connector.36</title>
			<path d="M0 772.92 L22.83 772.92" class="st7"/>
		</g>
		<g id="shape37-127" v:mID="37" v:groupContext="shape" v:layerMember="0" transform="translate(347.484,-737.248)">
			<title>Dynamic connector.37</title>
			<path d="M7.09 780.01 L7.09 802.83" class="st7"/>
		</g>
		<g id="shape38-132" v:mID="38" v:groupContext="shape" v:layerMember="0" transform="translate(297.878,-692.909)">
			<title>Dynamic connector.38</title>
			<path d="M0 785.27 L0 788.91 L-22.83 788.91" class="st7"/>
		</g>
		<g id="shape41-137" v:mID="41" v:groupContext="shape" v:layerMember="0" transform="translate(126.75,-609.689)">
			<title>Dynamic connector.41</title>
			<desc>No</desc>
			<v:textBlock v:margins="rect(4,4,4,4)" v:tabSpace="42.5197"/>
			<v:textRect cx="14.6978" cy="772.921" width="40" height="17.6036"/>
			<path d="M0 772.92 L23.88 772.92" class="st7"/>
			<rect v:rectContext="textBkgnd" x="9.58452" y="768.121" width="10.2266" height="9.59985" class="st9"/>
			<text x="9.58" y="775.32" class="st4" v:langID="5129"><v:paragraph v:horizAlign="1"/><v:tabList/>No</text>		</g>
		<g id="shape43-144" v:mID="43" v:groupContext="shape" v:layerMember="0" transform="translate(78.1928,-595.516)">
			<title>Dynamic connector.43</title>
			<desc>Yes</desc>
			<v:textBlock v:margins="rect(4,4,4,4)" v:tabSpace="42.5197"/>
			<v:textRect cx="-7.08661" cy="794.181" width="40" height="17.6036"/>
			<path d="M-7.09 780.01 L-7.09 802.83" class="st7"/>
			<rect v:rectContext="textBkgnd" x="-13.9791" y="789.381" width="13.7851" height="9.59985" class="st9"/>
			<text x="-13.98" y="796.58" class="st4" v:langID="5129"><v:paragraph v:horizAlign="1"/><v:tabList/>Yes</text>		</g>
		<g id="shape44-151" v:mID="44" v:groupContext="shape" v:layerMember="0" transform="translate(127.799,-538.823)">
			<title>Dynamic connector.44</title>
			<path d="M0 772.92 L22.83 772.92" class="st7"/>
		</g>
		<g id="shape45-156" v:mID="45" v:groupContext="shape" v:layerMember="0" transform="translate(269.531,-538.823)">
			<title>Dynamic connector.45</title>
			<path d="M0 772.92 L22.83 772.92" class="st7"/>
		</g>
		<g id="shape46-161" v:mID="46" v:groupContext="shape" v:layerMember="0" transform="translate(347.484,-524.649)">
			<title>Dynamic connector.46</title>
			<path d="M7.09 780.01 L7.09 802.83" class="st7"/>
		</g>
		<g id="shape47-166" v:mID="47" v:groupContext="shape" v:layerMember="0" transform="translate(297.878,-467.957)">
			<title>Dynamic connector.47</title>
			<path d="M0 772.92 L-22.83 772.92" class="st7"/>
		</g>
		<g id="shape48-171" v:mID="48" v:groupContext="shape" v:layerMember="0" transform="translate(156.146,-482.13)">
			<title>Dynamic connector.48</title>
			<path d="M0 787.09 L-22.83 787.09" class="st7"/>
		</g>
		<g id="shape49-176" v:mID="49" v:groupContext="shape" v:layerMember="0" transform="translate(64.0195,-453.783)">
			<title>Dynamic connector.49</title>
			<path d="M7.09 780.01 L7.09 802.83" class="st7"/>
		</g>
		<g id="shape50-181" v:mID="50" v:groupContext="shape" v:layerMember="0" transform="translate(126.75,-397.09)">
			<title>Dynamic connector.50</title>
			<desc>No</desc>
			<v:textBlock v:margins="rect(4,4,4,4)" v:tabSpace="42.5197"/>
			<v:textRect cx="14.6978" cy="772.921" width="40" height="17.6036"/>
			<path d="M0 772.92 L23.88 772.92" class="st7"/>
			<rect v:rectContext="textBkgnd" x="9.58452" y="768.121" width="10.2266" height="9.59985" class="st9"/>
			<text x="9.58" y="775.32" class="st4" v:langID="5129"><v:paragraph v:horizAlign="1"/><v:tabList/>No</text>		</g>
		<g id="shape51-188" v:mID="51" v:groupContext="shape" v:layerMember="0" transform="translate(269.531,-397.09)">
			<title>Dynamic connector.51</title>
			<path d="M0 772.92 L22.83 772.92" class="st7"/>
		</g>
		<g id="shape52-193" v:mID="52" v:groupContext="shape" v:layerMember="0" transform="translate(361.657,-425.437)">
			<title>Dynamic connector.52</title>
			<path d="M-7.09 780.01 L-7.09 757.18" class="st7"/>
		</g>
		<g id="shape53-198" v:mID="53" v:groupContext="shape" v:layerMember="0" transform="translate(64.0195,-382.917)">
			<title>Dynamic connector.53</title>
			<desc>Yes</desc>
			<v:textBlock v:margins="rect(4,4,4,4)" v:tabSpace="42.5197"/>
			<v:textRect cx="7.08661" cy="794.181" width="40" height="17.6036"/>
			<path d="M7.09 780.01 L7.09 802.83" class="st7"/>
			<rect v:rectContext="textBkgnd" x="0.194128" y="789.381" width="13.7851" height="9.59985" class="st9"/>
			<text x="0.19" y="796.58" class="st4" v:langID="5129"><v:paragraph v:horizAlign="1"/><v:tabList/>Yes</text>		</g>
		<g id="shape54-205" v:mID="54" v:groupContext="shape" v:layerMember="0" transform="translate(127.799,-326.224)">
			<title>Dynamic connector.54</title>
			<path d="M0 772.92 L22.83 772.92" class="st7"/>
		</g>
		<g id="shape55-210" v:mID="55" v:groupContext="shape" v:layerMember="0" transform="translate(269.531,-326.224)">
			<title>Dynamic connector.55</title>
			<path d="M0 772.92 L56.84 772.92" class="st7"/>
		</g>
		<g id="shape56-215" v:mID="56" v:groupContext="shape" v:layerMember="0" transform="translate(127.799,-269.531)">
			<title>Dynamic connector.56</title>
			<path d="M0 787.09 L22.83 787.09" class="st7"/>
		</g>
		<g id="shape57-220" v:mID="57" v:groupContext="shape" v:layerMember="0" transform="translate(269.531,-255.358)">
			<title>Dynamic connector.57</title>
			<path d="M0 772.92 L22.83 772.92" class="st7"/>
		</g>
		<g id="shape58-225" v:mID="58" v:groupContext="shape" v:layerMember="0" transform="translate(354.571,-241.185)">
			<title>Dynamic connector.58</title>
			<path d="M0 780.01 L0 790.64 L-141.73 790.64 L-141.73 802.83" class="st7"/>
		</g>
		<g id="shape59-230" v:mID="59" v:groupContext="shape" v:layerMember="0" transform="translate(157.195,-198.665)">
			<title>Dynamic connector.59</title>
			<desc>Yes</desc>
			<v:textBlock v:margins="rect(4,4,4,4)" v:tabSpace="42.5197"/>
			<v:textRect cx="-14.6978" cy="787.094" width="40" height="17.6036"/>
			<path d="M0 787.09 L-23.88 787.09" class="st7"/>
			<rect v:rectContext="textBkgnd" x="-21.5903" y="782.294" width="13.7851" height="9.59985" class="st9"/>
			<text x="-21.59" y="789.49" class="st4" v:langID="5129"><v:paragraph v:horizAlign="1"/><v:tabList/>Yes</text>		</g>
		<g id="shape60-237" v:mID="60" v:groupContext="shape" v:layerMember="0" transform="translate(64.0195,-170.319)">
			<title>Dynamic connector.60</title>
			<path d="M7.09 780.01 L7.09 802.83" class="st7"/>
		</g>
		<g id="shape61-242" v:mID="61" v:groupContext="shape" v:layerMember="0" transform="translate(127.799,-127.799)">
			<title>Dynamic connector.61</title>
			<path d="M0 787.09 L22.83 787.09" class="st7"/>
		</g>
		<g id="shape62-247" v:mID="62" v:groupContext="shape" v:layerMember="0" transform="translate(410.215,-191.579)">
			<title>Dynamic connector.62</title>
			<desc>No</desc>
			<v:textBlock v:margins="rect(4,4,4,4)" v:tabSpace="42.5197"/>
			<v:textRect cx="43.5688" cy="741.556" width="40" height="17.6036"/>
			<path d="M0 780.01 L43.57 780.01 L43.57 665.06" class="st7"/>
			<rect v:rectContext="textBkgnd" x="38.4555" y="736.756" width="10.2266" height="9.59985" class="st9"/>
			<text x="38.46" y="743.96" class="st4" v:langID="5129"><v:paragraph v:horizAlign="1"/><v:tabList/>No</text>		</g>
		<g id="shape63-254" v:mID="63" v:groupContext="shape" transform="translate(14.4132,-14.4132)">
			<title>Rounded rectangle.63</title>
			<desc>User Action (Object State)</desc>
			<v:userDefs>
				<v:ud v:nameU="visVersion" v:val="VT0(11):26"/>
			</v:userDefs>
			<v:textBlock v:margins="rect(4,4,4,4)" v:tabSpace="42.5197"/>
			<v:textRect cx="42.5197" cy="765.834" width="85.04" height="28.3465"/>
			<path d="M70.87 780.01 A14.1733 14.1733 -180 0 0 85.04 765.83 L85.04 765.83 A14.1733 14.1733 -180 0 0 70.87 751.66 L14.17
						 751.66 A14.1733 14.1733 -180 0 0 0 765.83 L0 765.83 A14.1733 14.1733 -180 0 0 14.17 780.01 L70.87 780.01
						 Z" class="st3"/>
			<text x="21.85" y="763.43" class="st4" v:langID="5129"><v:paragraph v:horizAlign="1"/><v:tabList/>User Action<v:newlineChar/><tspan
						x="17.84" dy="1.2em" class="st5">(</tspan>Object State)</text>		</g>
		<g id="shape64-258" v:mID="64" v:groupContext="shape" transform="translate(113.626,-14.4132)">
			<title>Rectangle.64</title>
			<desc>System Action</desc>
			<v:userDefs>
				<v:ud v:nameU="visVersion" v:val="VT0(11):26"/>
			</v:userDefs>
			<v:textBlock v:margins="rect(4,4,4,4)" v:tabSpace="42.5197"/>
			<v:textRect cx="42.5197" cy="765.834" width="85.04" height="28.3465"/>
			<rect x="0" y="751.661" width="85.0394" height="28.3465" class="st3"/>
			<text x="16.96" y="768.23" class="st4" v:langID="5129"><v:paragraph v:horizAlign="1"/><v:tabList/>System Action</text>		</g>
		<g id="shape65-261" v:mID="65" v:groupContext="shape" transform="translate(219.925,-14.4132)">
			<title>Hexagon.65</title>
			<desc>User Decision</desc>
			<v:userDefs>
				<v:ud v:nameU="visVersion" v:val="VT0(11):26"/>
			</v:userDefs>
			<v:textBlock v:margins="rect(4,4,4,4)" v:tabSpace="42.5197"/>
			<v:textRect cx="35.4331" cy="765.834" width="70.87" height="28.3465"/>
			<path d="M55.89 751.66 L14.98 751.66 L-5.48 765.83 L14.98 780.01 L55.89 780.01 L76.35 765.83 L55.89 751.66 Z"
					class="st3"/>
			<text x="10.54" y="768.23" class="st4" v:langID="5129"><v:paragraph v:horizAlign="1"/><v:tabList/>User Decision</text>		</g>
		<g id="group66-264" transform="translate(312.051,-14.4132)" v:mID="66" v:groupContext="group">
			<title>Sheet.66</title>
			<desc>Task Created in In-Tray</desc>
			<g id="shape67-265" v:mID="67" v:groupContext="shape">
				<title>Rectangle</title>
				<v:userDefs>
					<v:ud v:nameU="visVersion" v:val="VT0(11):26"/>
				</v:userDefs>
				<rect x="0" y="751.661" width="85.0394" height="28.3465" class="st3"/>
			</g>
			<g id="shape68-267" v:mID="68" v:groupContext="shape" transform="translate(0,-22.6772)">
				<title>Sheet.68</title>
				<path d="M0 774.34 L42.52 780.01 L85.04 774.34" class="st6"/>
			</g>
			<g id="shape66-270" v:mID="66" v:groupContext="groupContent">
				<v:textBlock v:margins="rect(4,4,4,4)" v:tabSpace="42.5197"/>
				<v:textRect cx="42.5197" cy="765.834" width="85.04" height="28.3465"/>
				<text x="14.29" y="763.43" class="st4" v:langID="5129"><v:paragraph v:horizAlign="1"/><v:tabList/>Task Created in<v:newlineChar/><tspan
							x="29.85" dy="1.2em" class="st5">In</tspan>-Tray</text>			</g>
		</g>
		<g id="group39-273" transform="translate(354.571,-333.311)" v:mID="39" v:groupContext="group">
			<title>Sheet.39</title>
			<g id="shape74-274" v:mID="74" v:groupContext="shape">
				<title>Center drag circle</title>
				<v:userDefs>
					<v:ud v:nameU="visVersion" v:val="VT0(11):26"/>
				</v:userDefs>
				<path d="M-22.68 780.01 A22.6772 22.6772 0 0 1 22.68 780.01 A22.6772 22.6772 0 1 1 -22.68 780.01 Z" class="st3"/>
			</g>
			<g id="shape75-278" v:mID="75" v:groupContext="shape" transform="translate(-780.008,780.008) rotate(-90)">
				<title>Sheet.75</title>
				<path d="M0 780.01 L13.91 780.01" class="st11"/>
			</g>
			<g id="shape76-283" v:mID="76" v:groupContext="shape">
				<title>Sheet.76</title>
				<path d="M0 780.01 L8.24 780.01" class="st11"/>
			</g>
		</g>
		<g id="shape77-288" v:mID="77" v:groupContext="shape" v:layerMember="0" transform="translate(354.701,-310.634)">
			<title>Dynamic connector.77</title>
			<desc>Scheduled Time Arrives</desc>
			<v:textBlock v:margins="rect(4,4,4,4)" v:tabSpace="42.5197"/>
			<v:textRect cx="-143.215" cy="792.055" width="95.15" height="17.6036"/>
			<path d="M0 780.01 L0 792.06 L-283.59 792.06 L-283.59 801.42" class="st7"/>
			<rect v:rectContext="textBkgnd" x="-185.675" y="787.255" width="84.9216" height="9.59985" class="st9"/>
			<text x="-185.68" y="794.46" class="st4" v:langID="5129"><v:paragraph v:horizAlign="1"/><v:tabList/>Scheduled Time Arrives</text>		</g>
		<g id="group78-295" transform="translate(432.523,-28.5865)" v:mID="78" v:groupContext="group">
			<title>Sheet.78</title>
			<g id="shape79-296" v:mID="79" v:groupContext="shape">
				<title>Center drag circle</title>
				<v:userDefs>
					<v:ud v:nameU="visVersion" v:val="VT0(11):26"/>
				</v:userDefs>
				<path d="M-14.17 780.01 A14.1732 14.1732 0 0 1 14.17 780.01 A14.1732 14.1732 0 1 1 -14.17 780.01 Z" class="st3"/>
			</g>
			<g id="shape80-300" v:mID="80" v:groupContext="shape" transform="translate(-780.008,780.008) rotate(-90)">
				<title>Sheet.80</title>
				<path d="M0 780.01 L8.46 780.01" class="st13"/>
			</g>
			<g id="shape81-305" v:mID="81" v:groupContext="shape">
				<title>Sheet.81</title>
				<path d="M0 780.01 L4.91 780.01" class="st13"/>
			</g>
		</g>
		<g id="shape82-310" v:mID="82" v:groupContext="shape" transform="translate(382.917,-42.7597)">
			<title>Sheet.82</title>
			<desc>Time Delay</desc>
			<v:textBlock v:margins="rect(4,4,4,4)" v:tabSpace="42.5197"/>
			<v:textRect cx="52" cy="772.008" width="104" height="16"/>
			<rect x="0" y="764.008" width="104" height="16" class="st14"/>
			<text x="31.77" y="774.41" class="st4" v:langID="5129"><v:paragraph v:horizAlign="1"/><v:tabList/>Time Delay</text>		</g>
		<g id="shape83-313" v:mID="83" v:groupContext="shape" transform="translate(397.09,-312.051)">
			<title>Rounded rectangle.83</title>
			<desc>Reject Harvest (Rejected)</desc>
			<v:userDefs>
				<v:ud v:nameU="visVersion" v:val="VT0(11):26"/>
			</v:userDefs>
			<v:textBlock v:margins="rect(4,4,4,4)" v:tabSpace="42.5197"/>
			<v:textRect cx="56.6929" cy="758.748" width="113.39" height="42.5197"/>
			<path d="M99.21 780.01 A14.1733 14.1733 -180 0 0 113.39 765.83 L113.39 751.66 A14.1733 14.1733 -180 0 0 99.21 737.49
						 L14.17 737.49 A14.1733 14.1733 -180 0 0 0 751.66 L0 765.83 A14.1733 14.1733 -180 0 0 14.17 780.01 L99.21
						 780.01 Z" class="st3"/>
			<text x="30.46" y="756.35" class="st4" v:langID="5129"><v:paragraph v:horizAlign="1"/><v:tabList/>Reject Harvest<v:newlineChar/><tspan
						x="38.24" dy="1.2em" class="st5">(</tspan>Rejected)</text>		</g>
		<g id="shape84-317" v:mID="84" v:groupContext="shape" transform="translate(297.878,-99.4526)">
			<title>Rounded rectangle.84</title>
			<desc>Use other Quality Review tools such as Prune</desc>
			<v:userDefs>
				<v:ud v:nameU="visVersion" v:val="VT0(11):26"/>
			</v:userDefs>
			<v:textBlock v:margins="rect(4,4,4,4)" v:tabSpace="42.5197"/>
			<v:textRect cx="56.6929" cy="758.748" width="113.39" height="42.5197"/>
			<path d="M99.21 780.01 A14.1733 14.1733 -180 0 0 113.39 765.83 L113.39 751.66 A14.1733 14.1733 -180 0 0 99.21 737.49
						 L14.17 737.49 A14.1733 14.1733 -180 0 0 0 751.66 L0 765.83 A14.1733 14.1733 -180 0 0 14.17 780.01 L99.21
						 780.01 Z" class="st3"/>
			<text x="11.56" y="756.35" class="st4" v:langID="5129"><v:paragraph v:horizAlign="1"/><v:tabList/>Use other Quality Review <tspan
						x="21.56" dy="1.2em" class="st5">tools such as Prune</tspan></text>		</g>
		<g id="shape85-321" v:mID="85" v:groupContext="shape" transform="translate(306.382,-170.319)">
			<title>Hexagon.85</title>
			<desc>Can Harvest be fixed?</desc>
			<v:userDefs>
				<v:ud v:nameU="visVersion" v:val="VT0(11):26"/>
			</v:userDefs>
			<v:textBlock v:margins="rect(4,4,4,4)" v:tabSpace="42.5197"/>
			<v:textRect cx="48.189" cy="758.748" width="96.38" height="42.5197"/>
			<path d="M76.01 737.49 L20.37 737.49 L-7.45 758.75 L20.37 780.01 L76.01 780.01 L103.83 758.75 L76.01 737.49 Z"
					class="st3"/>
			<text x="8.61" y="761.15" class="st4" v:langID="5129"><v:paragraph v:horizAlign="1"/><v:tabList/>Can Harvest be fixed?</text>		</g>
		<g id="shape86-324" v:mID="86" v:groupContext="shape" v:layerMember="0" transform="translate(347.484,-170.319)">
			<title>Dynamic connector.86</title>
			<desc>Yes</desc>
			<v:textBlock v:margins="rect(4,4,4,4)" v:tabSpace="42.5197"/>
			<v:textRect cx="7.08661" cy="794.181" width="40" height="17.6036"/>
			<path d="M7.09 780.01 L7.09 802.83" class="st7"/>
			<rect v:rectContext="textBkgnd" x="0.194128" y="789.381" width="13.7851" height="9.59985" class="st9"/>
			<text x="0.19" y="796.58" class="st4" v:langID="5129"><v:paragraph v:horizAlign="1"/><v:tabList/>Yes</text>		</g>
		<g id="shape87-331" v:mID="87" v:groupContext="shape" v:layerMember="0" transform="translate(297.878,-120.712)">
			<title>Dynamic connector.87</title>
			<path d="M0 780.01 L-10.63 780.01 L-10.63 741.03 L-85.04 741.03 L-85.04 735.92" class="st7"/>
		</g>
		<g id="shape88-336" v:mID="88" v:groupContext="shape" v:layerMember="0" transform="translate(453.783,-354.571)">
			<title>Dynamic connector.88</title>
			<path d="M0 780.01 L0 730.4 L-37 730.4" class="st7"/>
		</g>
		<g id="shape89-341" v:mID="89" v:groupContext="shape" transform="translate(14.4132,-666.382)">
			<title>Rounded rectangle.89</title>
			<desc>Authorising Agency Responds</desc>
			<v:userDefs>
				<v:ud v:nameU="visVersion" v:val="VT0(11):26"/>
			</v:userDefs>
			<v:textBlock v:margins="rect(4,4,4,4)" v:tabSpace="42.5197"/>
			<v:textRect cx="56.6929" cy="758.748" width="113.39" height="42.5197"/>
			<path d="M99.21 780.01 A14.1733 14.1733 -180 0 0 113.39 765.83 L113.39 751.66 A14.1733 14.1733 -180 0 0 99.21 737.49
						 L14.17 737.49 A14.1733 14.1733 -180 0 0 0 751.66 L0 765.83 A14.1733 14.1733 -180 0 0 14.17 780.01 L99.21
						 780.01 Z" class="st3"/>
			<text x="22.23" y="756.35" class="st4" v:langID="5129"><v:paragraph v:horizAlign="1"/><v:tabList/>Authorising Agency <tspan
						x="38.68" dy="1.2em" class="st5">Responds</tspan></text>		</g>
		<g id="shape40-345" v:mID="40" v:groupContext="shape" v:layerMember="0" transform="translate(78.1928,-666.382)">
			<title>Dynamic connector.40</title>
			<path d="M-7.09 780.01 L-7.09 802.83" class="st7"/>
		</g>
		<g id="shape42-350" v:mID="42" v:groupContext="shape" v:layerMember="0" transform="translate(268.482,-198.665)">
			<title>Dynamic connector.42</title>
			<desc>No</desc>
			<v:textBlock v:margins="rect(4,4,4,4)" v:tabSpace="42.5197"/>
			<v:textRect cx="15.2223" cy="787.094" width="40" height="17.6036"/>
			<path d="M0 787.09 L24.92 787.09" class="st7"/>
			<rect v:rectContext="textBkgnd" x="10.1091" y="782.294" width="10.2266" height="9.59985" class="st9"/>
			<text x="10.11" y="789.49" class="st4" v:langID="5129"><v:paragraph v:horizAlign="1"/><v:tabList/>No</text>		</g>
		<g id="shape8-357" v:mID="8" v:groupContext="shape" v:layerMember="0" transform="translate(156.146,-694.475)">
			<title>Dynamic connector.8</title>
			<path d="M0 787.03 L-25.91 787.14" class="st7"/>
		</g>
	</g>
</svg>
