<?xml version="1.0" encoding="UTF-8" standalone="no"?>
<!-- Created with Inkscape (http://www.inkscape.org/) -->

<svg
   version="1.1"
   id="svg2"
   width="347.31531"
   height="411.384"
   viewBox="0 0 347.31529 411.384"
   sodipodi:docname="aj-large-pale.svg"
   inkscape:version="1.2.2 (b0a84865, 2022-12-01)"
   xmlns:inkscape="http://www.inkscape.org/namespaces/inkscape"
   xmlns:sodipodi="http://sodipodi.sourceforge.net/DTD/sodipodi-0.dtd"
   xmlns="http://www.w3.org/2000/svg"
   xmlns:svg="http://www.w3.org/2000/svg">
  <sodipodi:namedview
     id="namedview2227"
     pagecolor="#ffffff"
     bordercolor="#666666"
     borderopacity="1.0"
     inkscape:showpageshadow="2"
     inkscape:pageopacity="0.0"
     inkscape:pagecheckerboard="0"
     inkscape:deskcolor="#d1d1d1"
     showgrid="false"
     inkscape:zoom="1.8620073"
     inkscape:cx="173.73724"
     inkscape:cy="205.692"
     inkscape:window-width="729"
     inkscape:window-height="480"
     inkscape:window-x="49"
     inkscape:window-y="38"
     inkscape:window-maximized="0"
     inkscape:current-layer="svg2" />
  <defs
     id="defs1984" />
  <g
     id="g10"
     transform="matrix(1.3333333,0,0,-1.3333333,-41.944696,768.06798)"
     style="fill:#e6e6e6">
    <g
       id="g112"
       clip-path="url(#clipPath775)"
       style="fill:#e6e6e6">
      <g
         id="g114"
         style="fill:#e6e6e6" />
      <g
         id="g124"
         style="fill:#e6e6e6">
        <path
           d="m 186.145,416.199 c 0.753,-51.796 -15.551,-103.593 -70.297,-148.686 37,45.843 42.894,102.093 42.144,155.479 0.75,48.111 -2.199,118.407 -7.402,136.149 -3.699,1.364 -2.195,9.521 -13.297,9.521 22.204,0.74 37.754,6.648 52.555,7.389 -8.907,-42.059 -0.754,-102.843 -3.703,-159.852 m -25.899,70.306 24.399,-45.754 c -22.954,-19.349 -54,-45.238 -82.153,-66.61 13.356,36.169 48.852,109.41 57.754,112.364 M 291.945,337.141 c -17,-0.831 -28.851,0.758 -51.05,-1.59 -8.903,23.793 -40.7,80.052 -51.801,97.793 C 138.047,404.492 84.742,348.251 35.2,305.199 c -4.454,-3.694 -5.208,-3.694 -0.755,0.759 44.403,43.648 51.052,100.648 79.899,151.704 9.652,16.386 29.597,26.648 42.203,34.046 -5.957,9.602 -24.457,58.454 -50.356,51.046 11.852,8.997 44.399,0.759 62.207,-3.703 39.95,-62.149 102.103,-202.741 123.547,-201.91"
           style="opacity:0.100006;fill:#e6e6e6;fill-opacity:1;fill-rule:evenodd;stroke:none"
           id="path120"
           clip-path="url(#clipPath1613)" />
        <path
           style="fill:#e6e6e6;stroke-width:0.716073;stroke-opacity:0.65"
           d="M 7.3263898,357.13709 C 26.996092,335.93788 39.026778,318.39536 52.073432,291.8893 60.288798,275.19867 62.366824,270.24648 82.609431,219.11837 93.326886,192.04858 105.988,165.05026 112.60288,155.16091 c 8.38977,-12.54284 21.90228,-23.67374 44.94417,-37.02266 4.83058,-2.79852 8.8795,-5.32988 8.99761,-5.62526 0.30066,-0.75192 -12.15391,-24.814176 -17.37365,-33.565929 -7.37328,-12.362534 -15.04002,-21.912733 -22.0863,-27.512152 -7.13933,-5.673361 -13.35649,-8.130699 -20.62155,-8.150685 -4.25537,-0.01171 -4.57583,-0.08178 -3.33863,-0.730016 0.75272,-0.394387 3.23347,-1.231607 5.51278,-1.860489 5.95471,-1.642956 21.29997,-1.613613 32.27224,0.06171 7.02963,1.073337 21.06714,3.695758 21.36216,3.990781 0.20767,0.20767 1.73642,15.29392 2.32284,22.922697 0.94846,12.338378 2.1239,33.067123 2.50221,44.126053 l 0.36125,10.56012 -2.9304,3.94036 c -10.89829,14.65439 -30.47911,51.71822 -49.30761,93.33261 -9.74868,21.54635 -20.885475,48.62273 -20.257379,49.25083 0.519466,0.51947 38.511099,-29.3906 63.200029,-49.75614 4.87377,-4.0203 9.1635,-7.49278 9.53272,-7.71661 0.50764,-0.30774 0.67132,0.37738 0.67132,2.80986 v 3.21682 l -6.84745,5.23108 c -25.44986,19.44231 -48.39758,39.3986 -100.518146,87.41471 -33.887175,31.2186 -56.9039344,51.89636 -57.7666923,51.89636 -0.2182557,0 1.6231389,-2.17704 4.0919881,-4.83787 z"
           id="path1702"
           transform="matrix(0.75000002,0,0,-0.75000002,31.458523,576.051)" />
        <path
           style="fill:#e6e6e6;stroke-width:0.716073;stroke-opacity:0.65"
           d="M 201.96942,81.09528 C 198.70986,75.325168 188.46943,58.190632 184.7633,52.305587 l -2.06534,-3.279589 -9.71664,-2.296129 c -5.34416,-1.262871 -9.80568,-2.373388 -9.91449,-2.467817 -0.10881,-0.09443 -0.64571,-3.26471 -1.19311,-7.04507 -1.55664,-10.750241 -2.47278,-14.320588 -4.05274,-15.794208 -0.7567,-0.705769 -1.94524,-2.401738 -2.64119,-3.768817 -2.14497,-4.213392 -4.74063,-6.341857 -9.10088,-7.462815 -1.33098,-0.3421766 -1.07771,-0.4237676 1.45637,-0.4691815 4.85326,-0.086976 18.67912,-2.0022903 29.74155,-4.1201359 17.52484,-3.3550414 27.77581,-5.03889892 30.75588,-5.05206026 2.71626,-0.0119962 2.8612,0.0551021 2.58277,1.19566386 -0.63772,2.6124225 -1.98026,11.2061048 -2.74776,17.5885458 -1.61755,13.451448 -2.02995,21.120721 -2.36809,44.038496 l -0.34468,23.361886 z"
           id="path1704"
           transform="matrix(0.75000002,0,0,-0.75000002,31.458523,576.051)" />
        <path
           style="fill:#e6e6e6;stroke-width:0.716073;stroke-opacity:0.65"
           d="m 168.85834,178.78823 c -0.025,-16.95629 -0.23594,-36.50898 -0.46882,-43.45041 l -0.42341,-12.62079 1.60365,-1.52359 c 0.88201,-0.83797 1.80313,-1.32132 2.04693,-1.07411 0.99473,1.00864 32.14639,59.97627 31.89736,60.37919 -0.14833,0.24001 -7.5734,6.52953 -16.50015,13.9767 -8.92676,7.44717 -16.65339,13.90084 -17.17031,14.34148 -0.8934,0.76157 -0.94209,-0.72223 -0.98525,-30.02847 z"
           id="path1706"
           transform="matrix(0.75000002,0,0,-0.75000002,31.458523,576.051)" />
        <path
           style="fill:#e6e6e6;stroke-width:0.716073;stroke-opacity:0.65"
           d="m 115.73532,407.6953 c 0,-0.29939 0.22566,-0.68382 0.50147,-0.85428 1.00641,-0.62199 9.28143,-12.71521 13.71616,-20.04495 24.9289,-41.20264 37.23445,-90.35519 38.77765,-154.8912 l 0.34278,-14.33477 5.15147,-3.70184 c 9.33627,-6.70902 15.37315,-10.77467 23.74225,-15.98964 l 8.26196,-5.14822 0.17103,1.68409 c 0.3865,3.80568 -1.00974,44.34085 -1.77588,51.55662 -5.69942,53.67939 -25.87453,97.60978 -63.51066,138.29162 -8.86351,9.58079 -25.37823,24.82938 -25.37823,23.43257 z"
           id="path1708"
           transform="matrix(0.75000002,0,0,-0.75000002,31.458523,576.051)" />
        <path
           style="fill:#e6e6e6;stroke-width:0.716073;stroke-opacity:0.65"
           d="m 278.92317,319.07706 c -4.88345,-12.84445 -20.7941,-44.73932 -37.13843,-74.44858 -9.24452,-16.80385 -29.91786,-52.76347 -31.28423,-54.41641 -0.079,-0.0956 -0.83079,0.18119 -1.67053,0.61515 l -1.52681,0.789 -0.05,-20.21764 c -0.0275,-11.1197 -0.36723,-33.93533 -0.75495,-50.70138 -0.38773,-16.76606 -0.58579,-30.602921 -0.44013,-30.748581 0.46611,-0.466107 15.80613,27.717161 45.02114,82.714511 27.37789,51.53899 43.27809,80.23382 55.18826,99.5974 15.01307,24.40827 27.38279,40.12501 35.03085,44.50953 l 2.9538,1.69338 -17.18576,0.006 c -16.58595,0.006 -35.6634,0.67862 -43.73845,1.54143 -3.82801,0.40902 -3.89982,0.39379 -4.40477,-0.93432 z"
           id="path1710"
           transform="matrix(0.75000002,0,0,-0.75000002,31.458523,576.051)" />
      </g>
    </g>
  </g>
</svg>
