<?xml version="1.0" encoding="UTF-8" standalone="no"?>
<svg
   inkscape:version="1.3.2 (091e20e, 2023-11-25)"
   sodipodi:docname="Irontriangle.svg"
   id="svg2"
   height="394.83856"
   width="467.729"
   version="1.1"
   xmlns:inkscape="http://www.inkscape.org/namespaces/inkscape"
   xmlns:sodipodi="http://sodipodi.sourceforge.net/DTD/sodipodi-0.dtd"
   xmlns="http://www.w3.org/2000/svg"
   xmlns:svg="http://www.w3.org/2000/svg"
   xmlns:rdf="http://www.w3.org/1999/02/22-rdf-syntax-ns#"
   xmlns:cc="http://creativecommons.org/ns#"
   xmlns:dc="http://purl.org/dc/elements/1.1/">
  <sodipodi:namedview
     inkscape:current-layer="svg2"
     inkscape:window-maximized="0"
     inkscape:window-y="38"
     inkscape:window-x="62"
     inkscape:cy="210.05952"
     inkscape:cx="269.69667"
     inkscape:zoom="1.3162936"
     showgrid="false"
     id="namedview45"
     inkscape:window-height="916"
     inkscape:window-width="1240"
     inkscape:pageshadow="2"
     inkscape:pageopacity="0"
     guidetolerance="10"
     gridtolerance="10"
     objecttolerance="10"
     borderopacity="1"
     bordercolor="#666666"
     pagecolor="#909090"
     inkscape:showpageshadow="2"
     inkscape:pagecheckerboard="false"
     inkscape:deskcolor="#d1d1d1" />
  <metadata
     id="metadata8">
    <rdf:RDF>
      <cc:Work
         rdf:about="">
        <dc:format>image/svg+xml</dc:format>
        <dc:type
           rdf:resource="http://purl.org/dc/dcmitype/StillImage" />
      </cc:Work>
    </rdf:RDF>
  </metadata>
  <defs
     id="defs6">
    <marker
       style="overflow:visible"
       id="Arrow2Mendt"
       orient="auto"
       refY="0"
       refX="0">
      <path
         style="font-size:12px;fill:#bf0000;fill-rule:evenodd;stroke:#bf0000;stroke-width:0.625;stroke-linejoin:round"
         id="path4459"
         transform="scale(-0.6,-0.6)"
         d="M 8.7185878,4.0337352 -2.2072895,0.01601326 8.7185884,-4.0017078 c -1.7454984,2.3720609 -1.7354408,5.6174519 -6e-7,8.035443 z" />
    </marker>
    <marker
       style="overflow:visible"
       id="Arrow2MendP"
       orient="auto"
       refY="0"
       refX="0">
      <path
         style="font-size:12px;fill:#bf0000;fill-rule:evenodd;stroke:#bf0000;stroke-width:0.625;stroke-linejoin:round"
         id="path4462"
         transform="scale(-0.6,-0.6)"
         d="M 8.7185878,4.0337352 -2.2072895,0.01601326 8.7185884,-4.0017078 c -1.7454984,2.3720609 -1.7354408,5.6174519 -6e-7,8.035443 z" />
    </marker>
    <marker
       style="overflow:visible"
       id="Arrow2Mend9"
       orient="auto"
       refY="0"
       refX="0">
      <path
         style="font-size:12px;fill:#bf0000;fill-rule:evenodd;stroke:#bf0000;stroke-width:0.625;stroke-linejoin:round"
         id="path4465"
         transform="scale(-0.6,-0.6)"
         d="M 8.7185878,4.0337352 -2.2072895,0.01601326 8.7185884,-4.0017078 c -1.7454984,2.3720609 -1.7354408,5.6174519 -6e-7,8.035443 z" />
    </marker>
    <marker
       style="overflow:visible"
       id="Arrow2MendE"
       orient="auto"
       refY="0"
       refX="0">
      <path
         style="font-size:12px;fill:#003cff;fill-rule:evenodd;stroke:#003cff;stroke-width:0.625;stroke-linejoin:round"
         id="path4554"
         transform="scale(-0.6,-0.6)"
         d="M 8.7185878,4.0337352 -2.2072895,0.01601326 8.7185884,-4.0017078 c -1.7454984,2.3720609 -1.7354408,5.6174519 -6e-7,8.035443 z" />
    </marker>
    <marker
       style="overflow:visible"
       id="Arrow2MendT"
       orient="auto"
       refY="0"
       refX="0">
      <path
         style="font-size:12px;fill:#003cff;fill-rule:evenodd;stroke:#003cff;stroke-width:0.625;stroke-linejoin:round"
         id="path4557"
         transform="scale(-0.6,-0.6)"
         d="M 8.7185878,4.0337352 -2.2072895,0.01601326 8.7185884,-4.0017078 c -1.7454984,2.3720609 -1.7354408,5.6174519 -6e-7,8.035443 z" />
    </marker>
    <marker
       style="overflow:visible"
       id="Arrow2MendV"
       orient="auto"
       refY="0"
       refX="0">
      <path
         style="font-size:12px;fill:#003cff;fill-rule:evenodd;stroke:#003cff;stroke-width:0.625;stroke-linejoin:round"
         id="path4560"
         transform="scale(-0.6,-0.6)"
         d="M 8.7185878,4.0337352 -2.2072895,0.01601326 8.7185884,-4.0017078 c -1.7454984,2.3720609 -1.7354408,5.6174519 -6e-7,8.035443 z" />
    </marker>
  </defs>
  <path
     id="text54"
     style="font-style:normal;font-weight:normal;font-size:40px;line-height:1.25;font-family:sans-serif;fill:#f9f9f9;fill-opacity:1;stroke:none"
     d="m 96.765625,341.16016 c -2.908431,0.0288 -5.902128,1.33912 -7.462891,3.875 -0.934468,1.45588 -1.390375,3.17324 -1.521484,4.88672 -0.84375,-10e-6 -1.6875,-10e-6 -2.53125,0 0,2.36197 0,4.72395 0,7.08593 0.826823,0 1.653646,0 2.480469,0 0,6.24349 0,12.48698 0,18.73047 2.557291,0 5.114583,0 7.671875,0 0,-6.24349 0,-12.48698 0,-18.73047 1.890625,0 3.78125,0 5.671876,0 -1.243018,3.36392 -1.336335,7.13723 -0.40646,10.5899 0.98678,3.7207 3.98968,6.77105 7.66557,7.88429 3.9056,1.22557 8.19354,0.93071 12.00086,-0.51038 1.04637,-0.36461 2.0652,-0.80126 3.0955,-1.20795 0,-2.45247 0,-4.90495 0,-7.35742 -0.98929,0.0446 -2.0423,-0.0878 -2.99306,0.0638 -1.57882,1.39539 -3.64764,2.17188 -5.70941,2.49342 -2.20308,0.2982 -4.89423,-0.15119 -6.10808,-2.2349 -0.2135,-0.43487 -0.68079,-1.17864 -0.51523,-1.51758 5.25182,0 10.50364,0 15.75547,0 -0.0389,-3.3569 0.31741,-6.89686 -1.17371,-10.02591 -1.32966,-3.04394 -4.30772,-5.20484 -7.57825,-5.67526 -3.91083,-0.6478 -8.24206,0.24342 -11.12304,3.09765 -0.8138,0.7814 -1.51221,1.68081 -2.07813,2.65625 0,-1.7806 0,-3.5612 0,-5.34179 -2.177734,0 -4.355469,0 -6.533203,0 0.01923,-0.72593 0.458708,-1.41555 1.236328,-1.4629 1.508174,-0.34029 3.000553,0.22476 4.468745,0.44336 0.73178,0 1.46355,0 2.19532,0 0,-2.34961 0,-4.69922 0,-7.04882 -2.15176,-0.37524 -4.312108,-0.7872 -6.507815,-0.69336 z m -49.113281,0.97656 c -4.098056,0.0685 -8.395277,1.72389 -10.785156,5.1875 -2.027474,3.01691 -1.997534,7.21187 -0.160157,10.30859 1.822325,2.99493 5.348541,4.32836 8.64908,4.90007 2.462999,0.55753 5.093634,0.5838 7.399748,1.69564 0.96722,0.46379 0.946303,1.79631 0.631648,2.66772 -0.908939,1.59497 -2.968238,1.88822 -4.637507,2.01001 -3.847972,0.15584 -7.714559,-1.28396 -10.609375,-3.80859 -0.989583,0 -1.979167,0 -2.96875,0 0,2.72005 0,5.4401 0,8.16015 3.49398,1.61102 7.226015,2.84318 11.101563,2.9668 3.600291,0.22233 7.390969,-0.24999 10.464285,-2.27046 3.387193,-2.03882 5.371151,-6.16545 4.755514,-10.08399 -0.241808,-2.50771 -1.699993,-4.83116 -3.864331,-6.12602 -3.697641,-2.32099 -8.215934,-2.28619 -12.318125,-3.38659 -0.875852,-0.23432 -1.914702,-0.74091 -1.90894,-1.79491 -0.273833,-1.11607 0.574548,-2.08605 1.554755,-2.47651 2.268005,-0.9629 4.862731,-0.67245 7.193091,-0.0891 1.933083,0.52625 3.80134,1.38034 5.299532,2.73341 0.990885,0 1.981771,0 2.972656,0 0,-2.63932 0,-5.27865 0,-7.91797 -3.732752,-1.65959 -7.772946,-2.71174 -11.876927,-2.68094 -0.297559,-0.007 -0.595061,0.002 -0.892604,0.005 z m 24.287109,7.2793 c -2.73971,0.12667 -5.431456,0.71999 -8.076172,1.41601 0,2.42969 0,4.85938 0,7.28906 1.187125,-0.0657 2.435896,0.21964 3.533072,-0.35776 2.676293,-0.91427 5.639676,-1.56941 8.423781,-0.76747 0.654449,0.20445 0.809407,0.63213 -0.02429,0.5139 -3.704328,0.28607 -7.709367,0.5896 -10.758736,2.95313 -2.06493,1.5578 -3.126465,4.14189 -3.102116,6.69088 -0.155897,3.01084 1.347996,6.02614 3.8866,7.66579 2.938053,2.00882 6.854415,1.8478 10.069877,0.63951 0.427032,-0.0991 1.142302,-0.75404 0.92103,0.10148 0.223853,0.40206 1.18327,0.0686 1.7,0.17773 1.984115,0 3.968229,0 5.952344,0 -0.01794,-5.88208 0.03561,-11.76575 -0.02625,-17.64687 -0.06781,-2.87145 -1.539328,-5.75285 -4.10852,-7.15196 -2.524453,-1.43937 -5.553641,-1.58964 -8.390625,-1.52343 z m 41.070317,6.94531 c 1.24363,0.0188 2.55882,0.65458 2.93092,1.92309 -0.21199,0.27192 -1.16552,0.0338 -1.65632,0.11402 -1.93984,0 -3.87968,0 -5.81953,0 0.84595,-1.57034 2.71511,-2.19889 4.40955,-2.04156 l 0.0999,0.003 z M 76.8125,367.33594 c -1.520549,1.07903 -3.36421,1.80718 -5.255995,1.55126 -0.779614,-0.0371 -1.806739,-0.34928 -1.807686,-1.29886 -0.184602,-0.84671 0.177959,-1.75247 1.010947,-2.09029 1.874308,-0.90488 4.024654,-0.84726 6.052734,-1.0625 0,0.96679 0,1.93359 0,2.90039 z" />
  <path
     id="text56"
     style="font-style:normal;font-weight:normal;font-size:40px;line-height:1.25;font-family:sans-serif;fill:#f9f9f9;fill-opacity:1;stroke:none"
     d="m 354.47461,337.89648 c -4.38711,0.13754 -8.86627,2.05204 -11.43169,5.7192 -3.10944,4.30504 -3.70308,9.91552 -3.03205,15.05711 0.58588,4.46585 2.86872,8.89286 6.80554,11.27057 3.95963,2.41382 8.94886,2.76273 13.36914,1.57617 4.18074,-1.15328 7.6366,-4.42 9.16287,-8.46186 1.62411,-4.14724 1.78493,-8.78629 0.90449,-13.1228 -0.85233,-4.09917 -3.22227,-8.03594 -6.97528,-10.06874 -2.66022,-1.52086 -5.76226,-2.0967 -8.80302,-1.96965 z m 30.44141,7.26172 c -1.60791,0.0701 -3.19162,0.49991 -4.62891,1.22071 0.29378,-0.90277 -0.64028,-0.5777 -1.2,-0.62696 -2.15729,0 -4.31458,0 -6.47188,0 0,11.28776 0,22.57552 0,33.86328 2.5573,0 5.11459,0 7.67188,0 0,-2.71354 0,-5.42708 0,-8.14062 3.51728,1.02306 7.5785,0.60722 10.5165,-1.70193 3.48676,-2.61389 5.05106,-7.09598 5.01084,-11.34104 0.0295,-3.85957 -0.86006,-8.02636 -3.74218,-10.79297 -1.88042,-1.83666 -4.56736,-2.62634 -7.15625,-2.48047 z m 23.05664,0 c -3.7448,0.0715 -7.44618,1.92105 -9.55747,5.04804 -2.43121,3.48954 -2.83157,8.03198 -2.08121,12.12384 0.66183,3.59652 3.0505,6.85388 6.40302,8.3745 3.52058,1.60308 7.6139,1.72918 11.33171,0.78411 1.81674,-0.48415 3.56334,-1.18382 5.30043,-1.89494 0,-2.45247 0,-4.90495 0,-7.35742 -0.98929,0.0446 -2.0423,-0.0878 -2.99306,0.0637 -1.58241,1.39518 -3.65285,2.1763 -5.71902,2.4946 -2.19296,0.29383 -4.86547,-0.15004 -6.08479,-2.2146 -0.28752,-0.47699 -0.49761,-0.9981 -0.62891,-1.53906 5.28516,0 10.57031,0 15.85547,0 -0.0389,-3.3569 0.31741,-6.89686 -1.17371,-10.02591 -1.32838,-3.04116 -4.30193,-5.2035 -7.57043,-5.67331 -1.01731,-0.1704 -2.05201,-0.21828 -3.08203,-0.1836 z m 25.85937,0 c -1.67086,0.0747 -3.31056,0.54943 -4.79492,1.3125 0.2869,-0.89315 -0.47182,-0.74068 -1.1,-0.71875 -2.19063,0 -4.38125,0 -6.57188,0 0,8.60547 0,17.21094 0,25.81641 2.5573,0 5.11459,0 7.67188,0 0,-5.7526 0,-11.50521 0,-17.25781 1.70639,-1.14609 3.89259,-2.19643 5.95393,-1.38552 0.86824,0.54066 0.74701,1.76293 0.88627,2.65536 0.13157,3.92817 0.0226,7.86277 0.0582,11.79344 0,1.39818 0,2.79635 0,4.19453 2.55729,0 5.11458,0 7.67187,0 -0.023,-5.76151 0.0463,-11.52473 -0.0351,-17.28516 -0.13314,-3.10891 -1.48608,-6.39838 -4.31582,-7.96322 -1.63389,-0.9394 -3.56132,-1.23702 -5.42442,-1.16178 z m -78.09961,0.0723 c 2.36303,0.0172 4.63474,1.37887 5.7073,3.49383 1.44559,2.79401 1.49336,6.08961 1.10962,9.14607 -0.34129,2.68706 -1.7874,5.4945 -4.45452,6.48403 -2.76665,0.98862 -6.28178,0.52951 -8.21201,-1.85245 -2.01929,-2.50905 -2.2154,-5.92732 -2.03775,-9.01397 0.17553,-2.79392 1.14174,-5.88765 3.70718,-7.36862 1.25419,-0.73832 2.74559,-0.94688 4.18018,-0.88889 z m 53.2168,6.96094 c 1.24293,0.0193 2.56116,0.65398 2.93182,1.92349 -0.21526,0.27116 -1.16575,0.0336 -1.65721,0.11362 -1.93985,0 -3.87969,0 -5.81953,0 0.90632,-1.64681 2.76973,-2.19416 4.54492,-2.03711 z m -24.13281,0.45703 c 1.23089,-0.0377 2.33683,0.80544 2.66838,1.9832 0.67268,2.15323 0.69817,4.50809 0.23198,6.70726 -0.3267,1.66141 -1.64215,3.17713 -3.40036,3.30758 -1.35605,0.12997 -2.75439,-0.005 -4.0293,-0.50195 0,-3.32682 0,-6.65364 0,-9.98047 1.35014,-0.86071 2.88535,-1.61028 4.5293,-1.51562 z" />
  <path
     id="path54"
     style="fill:none;stroke:#f9f9f9;stroke-width:5;stroke-linecap:round;stroke-linejoin:miter;stroke-miterlimit:4;stroke-dasharray:none;stroke-dashoffset:0;stroke-opacity:1"
     d="M 233.86914,62.505859 C 182.70629,151.12169 131.54416,239.73794 80.380859,328.35352 c 103.479821,0 206.959631,0 310.439451,0 -51.74025,-89.6155 -103.47849,-179.23216 -155.21875,-268.847661 -0.57747,1 -1.15495,2 -1.73242,3 z" />
  <path
     id="text55"
     style="font-style:normal;font-weight:normal;font-size:40px;line-height:1.25;font-family:sans-serif;fill:#f9f9f9;fill-opacity:1;stroke:none"
     d="m 179.4707,19.761719 c 0,10.360677 0,20.721354 0,31.082031 4.66122,-0.02925 9.32481,0.05926 13.98457,-0.04543 3.25149,-0.09893 6.56846,-1.1425 8.93926,-3.444808 3.08089,-2.940995 3.81509,-7.851589 2.14649,-11.699219 -0.75687,-1.655683 -2.045,-3.052306 -3.60352,-3.984375 2.35132,-2.560019 2.58395,-6.664552 0.92496,-9.646205 -1.64477,-2.772452 -4.99602,-3.96849 -8.07196,-4.147082 -4.33501,-0.228754 -8.68042,-0.06552 -13.0198,-0.114916 -0.55698,0.07635 -1.57696,-0.310297 -1.3,0.6 0,0.466666 0,0.933333 0,1.4 z m 100.96094,4.671875 c -3.74547,0.07021 -7.44362,1.923543 -9.55747,5.048038 -2.43624,3.504327 -2.83611,8.063887 -2.07144,12.168759 0.6709,3.579377 3.05533,6.814654 6.39289,8.330303 3.53363,1.605623 7.64218,1.731933 11.37079,0.773212 1.80512,-0.479986 3.53834,-1.179795 5.26367,-1.886718 0,-2.451823 0,-4.903646 0,-7.355469 -0.98929,0.04458 -2.0423,-0.08782 -2.99306,0.06375 -1.6406,1.443082 -3.79733,2.236064 -5.94294,2.5247 -2.16341,0.236931 -4.77159,-0.268538 -5.91167,-2.331963 -0.1899,-0.409356 -0.65573,-1.142799 -0.47811,-1.451801 5.25182,0 10.50364,0 15.75547,0 -0.0374,-3.388238 0.3208,-6.969692 -1.21851,-10.11626 -1.35128,-3.031709 -4.35376,-5.148535 -7.61938,-5.598584 -0.98792,-0.157366 -1.99118,-0.201621 -2.99024,-0.167968 z m -49.03711,0.08789 c -2.42982,0.116134 -4.82984,0.58547 -7.18164,1.189454 -0.23361,-0.422436 -1.16962,-0.240892 -1.68081,-0.424649 -2.69587,-0.510989 -5.59682,-0.325678 -8.02481,1.043523 -0.51595,0.287593 -0.10403,-0.955729 -0.23579,-1.302468 -2.55729,0 -5.11458,0 -7.67187,0 0,8.605468 0,17.210937 0,25.816406 2.55729,0 5.11458,0 7.67187,0 0,-5.498698 0,-10.997396 0,-16.496094 1.48146,-1.072721 3.26057,-1.904728 5.13572,-1.666546 1.2821,0.0385 2.51339,0.493676 3.80569,0.35014 0.23702,0.363237 1.06962,0.130897 1.60547,0.195312 1.19595,0.178352 2.22953,-0.526888 3.36073,-0.781823 2.31244,-0.651345 4.84266,-1.044699 7.18029,-0.311927 0.54147,0.194646 0.76911,0.597386 -0.0106,0.475441 -3.68514,0.287798 -7.665,0.560889 -10.72846,2.866546 -2.14362,1.542019 -3.25827,4.183513 -3.2302,6.784443 -0.15875,3.012618 1.34915,6.028467 3.88873,7.667483 2.9377,2.007955 6.853,1.844853 10.06775,0.637816 0.42703,-0.09913 1.1423,-0.754041 0.92103,0.101475 0.22385,0.402058 1.18327,0.06855 1.7,0.177734 1.98411,0 3.96823,0 5.95234,0 -0.0187,-5.880144 0.0372,-11.761893 -0.0275,-17.641056 -0.0684,-2.838416 -1.49666,-5.69325 -4.02116,-7.105767 -2.53665,-1.48826 -5.60949,-1.641722 -8.47677,-1.575443 z m 13.00586,3.251954 c 3.09111,7.690117 6.18251,15.380122 9.27344,23.070312 2.13021,0 4.26041,0 6.39062,0 3.48259,-8.605401 6.96406,-17.211254 10.44727,-25.816406 -2.72852,0 -5.45703,0 -8.18555,0 -1.77967,4.60963 -3.55715,9.220107 -5.33594,13.830078 -1.79419,-4.610056 -3.58909,-9.219838 -5.38281,-13.830078 -2.77018,0 -5.54036,0 -8.31054,0 0.36783,0.915364 0.73567,1.830729 1.10351,2.746094 z M 189.92969,25.0625 c 0.67479,0.0028 1.45799,0.01623 1.98314,0.0458 0.94633,0.106519 2.12678,-0.0091 2.82155,0.758887 0.2719,0.873429 0.25046,1.990484 -0.32422,2.740234 -1.37234,1.106048 -3.2617,0.771985 -4.89961,0.853516 -0.72422,0 -1.44844,0 -2.17266,0 0,-1.466146 0,-2.932292 0,-4.398438 0.86393,0 1.72787,0 2.5918,0 z m 91.49023,6.40625 c 1.23855,0.01647 2.546,0.656441 2.9175,1.917138 -0.20087,0.280175 -1.16526,0.03597 -1.65461,0.118018 -1.93854,0 -3.87708,0 -5.81562,0 0.90376,-1.649497 2.77699,-2.197681 4.55273,-2.035156 z m -90.0293,5.253906 c 1.69277,0.09305 3.57793,-0.141499 5.07032,0.822266 1.07812,0.69345 0.93577,2.166717 0.87109,3.279297 -0.17132,1.687946 -2.01704,2.451001 -3.50772,2.549411 -2.15263,0.249913 -4.32436,0.145953 -6.48642,0.169339 0,-2.273438 0,-4.546875 0,-6.820313 1.35091,0 2.70182,0 4.05273,0 z m 44.87696,5.71875 c -1.52068,1.078999 -3.36377,1.807625 -5.256,1.551258 -0.77903,-0.03533 -1.80823,-0.3487 -1.80779,-1.298846 -0.16663,-0.80632 0.13058,-1.700763 0.9295,-2.042974 1.88389,-0.962803 4.07878,-0.886421 6.13429,-1.109828 0,0.966796 0,1.933593 0,2.90039 z" />
  <path
     id="path3039"
     style="fill:none;stroke:#000000;stroke-width:5;stroke-linecap:round;stroke-linejoin:miter;stroke-miterlimit:4;stroke-dasharray:none;stroke-dashoffset:0;stroke-opacity:1"
     d="m 87.310547,324.35352 c 98.860023,0 197.720053,0 296.580073,0 C 334.46094,238.73763 285.03125,153.12174 235.60156,67.505859 186.17122,153.12174 136.74089,238.73763 87.310547,324.35352 Z" />
  <text
     xml:space="preserve"
     style="font-style:normal;font-weight:normal;font-size:40px;line-height:1.25;font-family:sans-serif;fill:#000000;fill-opacity:1;stroke:none"
     x="34.554752"
     y="373.73749"
     id="text1"><tspan
       sodipodi:role="line"
       id="tspan1"
       x="34.554752"
       y="373.73749">Safe</tspan></text>
  <text
     xml:space="preserve"
     style="font-style:normal;font-weight:normal;font-size:40px;line-height:1.25;font-family:sans-serif;fill:#000000;fill-opacity:1;stroke:none"
     x="177.56372"
     y="48.843491"
     id="text2"><tspan
       sodipodi:role="line"
       id="tspan2"
       x="177.56372"
       y="48.843491">Brave</tspan></text>
  <text
     xml:space="preserve"
     style="font-style:normal;font-weight:normal;font-size:40px;line-height:1.25;font-family:sans-serif;fill:#000000;fill-opacity:1;stroke:none"
     x="339.51813"
     y="369.56757"
     id="text3"><tspan
       sodipodi:role="line"
       id="tspan3"
       x="339.51813"
       y="369.56757">Open</tspan></text>
</svg>
